<svg xmlns="http://www.w3.org/2000/svg" xmlns:xlink="http://www.w3.org/1999/xlink" width="1200" zoomAndPan="magnify" viewBox="0 0 900 225" height="300" preserveAspectRatio="xMidYMid meet" version="1.0"><defs><g/><clipPath id="e6c09d4440"><path d="M 0 6.085938 L 234.664062 6.085938 L 234.664062 188.183594 L 0 188.183594 Z M 0 6.085938 " clip-rule="nonzero"/></clipPath><clipPath id="e0e441b992"><path d="M 35 90 L 202 90 L 202 222 L 35 222 Z M 35 90 " clip-rule="nonzero"/></clipPath><clipPath id="8398ac258d"><path d="M 36.898438 76.792969 L 203.46875 89.871094 L 192.375 231.171875 L 25.804688 218.09375 Z M 36.898438 76.792969 " clip-rule="nonzero"/></clipPath><clipPath id="938af3c77e"><path d="M 36.898438 76.792969 L 203.46875 89.871094 L 192.375 231.171875 L 25.804688 218.09375 Z M 36.898438 76.792969 " clip-rule="nonzero"/></clipPath></defs><g clip-path="url(#e6c09d4440)"><path fill="#49a0ff" d="M 40.527344 84.238281 L 59.632812 84.238281 L 62.570312 187.035156 L 37.957031 187.035156 L 40.527344 84.230469 Z M 22.519531 190.730469 L 212.121094 190.730469 L 212.121094 203.957031 L 223.480469 203.957031 L 223.480469 217.1875 L 234.496094 217.1875 L 234.496094 230.410156 L 0.144531 230.410156 L 0.144531 217.183594 L 11.160156 217.183594 L 11.160156 203.957031 L 22.519531 203.957031 Z M 222.007812 55.53125 L 117.316406 6.085938 L 12.621094 55.53125 L 12.625 63.617188 L 222.007812 63.617188 Z M 32.808594 67.316406 L 201.828125 67.316406 L 201.828125 80.539062 L 32.808594 80.539062 Z M 174.636719 84.234375 L 193.746094 84.234375 L 196.683594 187.039062 L 172.066406 187.039062 L 174.636719 84.242188 Z M 129.933594 84.234375 L 149.039062 84.238281 L 151.980469 187.035156 L 127.363281 187.035156 L 129.933594 84.230469 Z M 85.230469 84.234375 L 104.335938 84.234375 L 107.277344 187.039062 L 82.660156 187.039062 L 85.230469 84.242188 Z M 85.230469 84.234375 " fill-opacity="1" fill-rule="nonzero"/></g><g clip-path="url(#e0e441b992)"><g clip-path="url(#8398ac258d)"><g clip-path="url(#938af3c77e)"><path fill="#1c4ed8" d="M 36.746094 155.132812 C 48.566406 164.773438 54.976562 166.855469 64.320312 185.863281 C 73.667969 204.867188 74.582031 217.371094 77.238281 219.863281 C 79.894531 222.355469 94.289062 220.632812 101.972656 217.238281 C 109.65625 213.84375 110.101562 211.671875 118.25 196.105469 C 129.542969 174.523438 147.191406 148.320312 160.34375 133.363281 C 173.496094 118.410156 200.203125 99.476562 201.648438 95.59375 C 203.09375 91.710938 191.332031 88.933594 179.726562 91.445312 C 168.121094 93.960938 142.171875 118.382812 126.125 137.941406 C 108.300781 159.671875 101.082031 178.625 98.292969 177.835938 C 95.503906 177.046875 90.871094 165.039062 83.601562 155.90625 C 76.332031 146.769531 68.425781 140.347656 58.652344 141.292969 C 48.882812 142.238281 31.292969 150.683594 36.746094 155.132812 " fill-opacity="1" fill-rule="nonzero"/></g></g></g><g fill="#20335f" fill-opacity="1"><g transform="translate(240.48815, 158.250003)"><g><path d="M 66.359375 3.078125 L 54.203125 -23.46875 C 51.503906 -29.4375 48.109375 -33.628906 44.015625 -36.046875 C 42.796875 -36.796875 41.441406 -37.425781 39.953125 -37.9375 C 38.460938 -38.445312 36.832031 -38.84375 35.0625 -39.125 C 33.300781 -39.40625 31.394531 -39.59375 29.34375 -39.6875 L 29.34375 3.5 L 9.078125 3.5 L 9.078125 -100.734375 L 12.296875 -101.015625 C 14.804688 -101.203125 17.25 -101.390625 19.625 -101.578125 C 22 -101.765625 24.304688 -101.90625 26.546875 -102 C 31.015625 -102.269531 35.90625 -102.40625 41.21875 -102.40625 C 47.457031 -102.40625 53 -101.753906 57.84375 -100.453125 C 62.78125 -99.054688 66.878906 -97.054688 70.140625 -94.453125 C 73.585938 -91.742188 76.195312 -88.570312 77.96875 -84.9375 C 79.738281 -81.3125 80.625 -77.3125 80.625 -72.9375 C 80.625 -65.207031 78.242188 -58.921875 73.484375 -54.078125 C 70.503906 -50.992188 66.640625 -48.429688 61.890625 -46.390625 C 62.640625 -45.828125 63.316406 -45.265625 63.921875 -44.703125 C 64.523438 -44.148438 65.109375 -43.5 65.671875 -42.75 C 66.503906 -41.914062 67.289062 -41.007812 68.03125 -40.03125 C 68.78125 -39.050781 69.53125 -37.957031 70.28125 -36.75 C 71.675781 -34.507812 73.117188 -31.757812 74.609375 -28.5 L 85.234375 -5.734375 L 86.625 -2.515625 L 83.546875 -0.984375 L 71.109375 4.890625 L 67.90625 6.28125 Z M 41.21875 -84.25 C 39.632812 -84.25 38.144531 -84.25 36.75 -84.25 C 35.351562 -84.25 34.046875 -84.203125 32.828125 -84.109375 C 32.460938 -84.109375 32.046875 -84.082031 31.578125 -84.03125 C 31.109375 -83.988281 30.6875 -83.96875 30.3125 -83.96875 C 29.945312 -83.96875 29.625 -83.96875 29.34375 -83.96875 L 29.34375 -57.84375 L 41.21875 -57.84375 C 47.175781 -57.84375 51.972656 -59.097656 55.609375 -61.609375 C 58.773438 -63.941406 60.359375 -67.296875 60.359375 -71.671875 C 60.359375 -73.441406 60.007812 -75.046875 59.3125 -76.484375 C 58.613281 -77.929688 57.472656 -79.257812 55.890625 -80.46875 C 54.304688 -81.6875 52.300781 -82.617188 49.875 -83.265625 C 47.457031 -83.921875 44.570312 -84.25 41.21875 -84.25 Z M 41.21875 -84.25 "/></g></g></g><g fill="#20335f" fill-opacity="1"><g transform="translate(326.689772, 158.250003)"><g><path d="M 23.328125 -27.671875 C 24.359375 -23.566406 26.128906 -20.257812 28.640625 -17.75 C 31.898438 -14.582031 36.28125 -13 41.78125 -13 C 43.082031 -13 44.335938 -13.039062 45.546875 -13.125 C 46.753906 -13.21875 47.914062 -13.359375 49.03125 -13.546875 C 50.15625 -13.734375 51.226562 -13.96875 52.25 -14.25 C 53.28125 -14.53125 54.304688 -14.832031 55.328125 -15.15625 C 56.347656 -15.488281 57.347656 -15.835938 58.328125 -16.203125 C 59.304688 -16.578125 60.3125 -17 61.34375 -17.46875 L 64.96875 -19.140625 L 66.09375 -15.234375 L 69.015625 -4.46875 L 69.859375 -1.53125 L 67.203125 -0.28125 C 63.566406 1.394531 59.515625 2.695312 55.046875 3.625 C 52.816406 4.1875 50.46875 4.582031 48 4.8125 C 45.53125 5.050781 42.941406 5.171875 40.234375 5.171875 C 34.554688 5.171875 29.390625 4.238281 24.734375 2.375 C 20.078125 0.414062 16.117188 -2.378906 12.859375 -6.015625 C 9.597656 -9.546875 7.082031 -13.921875 5.3125 -19.140625 C 3.632812 -24.171875 2.796875 -29.898438 2.796875 -36.328125 C 2.796875 -42.097656 3.632812 -47.5 5.3125 -52.53125 C 6.238281 -55.050781 7.304688 -57.425781 8.515625 -59.65625 C 9.734375 -61.894531 11.132812 -63.945312 12.71875 -65.8125 C 15.882812 -69.53125 19.703125 -72.460938 24.171875 -74.609375 C 28.640625 -76.753906 33.625 -77.828125 39.125 -77.828125 C 40.988281 -77.828125 42.78125 -77.707031 44.5 -77.46875 C 46.21875 -77.238281 47.890625 -76.914062 49.515625 -76.5 C 51.148438 -76.082031 52.710938 -75.546875 54.203125 -74.890625 C 56.441406 -73.867188 58.46875 -72.679688 60.28125 -71.328125 C 62.101562 -69.972656 63.757812 -68.410156 65.25 -66.640625 C 68.132812 -63.191406 70.320312 -59.234375 71.8125 -54.765625 C 72.46875 -52.535156 72.976562 -50.234375 73.34375 -47.859375 C 73.71875 -45.484375 73.90625 -43.082031 73.90625 -40.65625 C 73.90625 -40.007812 73.90625 -39.359375 73.90625 -38.703125 C 73.90625 -38.046875 73.878906 -37.367188 73.828125 -36.671875 C 73.785156 -35.972656 73.765625 -35.296875 73.765625 -34.640625 C 73.765625 -33.992188 73.738281 -33.367188 73.6875 -32.765625 C 73.644531 -32.160156 73.578125 -31.53125 73.484375 -30.875 L 73.21875 -27.671875 Z M 38.84375 -59.9375 C 34.375 -59.9375 30.738281 -58.445312 27.9375 -55.46875 C 26.820312 -54.257812 25.84375 -52.769531 25 -51 C 24.164062 -49.226562 23.515625 -47.175781 23.046875 -44.84375 L 55.1875 -44.84375 C 54.71875 -49.320312 53.320312 -52.816406 51 -55.328125 C 48.113281 -58.398438 44.0625 -59.9375 38.84375 -59.9375 Z M 38.84375 -59.9375 "/></g></g></g><g fill="#20335f" fill-opacity="1"><g transform="translate(402.6925, 158.250003)"><g><path d="M 39.953125 -77.828125 C 42.285156 -77.828125 44.5 -77.640625 46.59375 -77.265625 C 48.6875 -76.890625 50.664062 -76.285156 52.53125 -75.453125 C 53.832031 -74.890625 55.09375 -74.28125 56.3125 -73.625 L 56.3125 -76.140625 L 74.75 -76.140625 L 74.75 -1.671875 C 74.75 4.753906 73.863281 10.34375 72.09375 15.09375 C 71.257812 17.414062 70.210938 19.578125 68.953125 21.578125 C 67.691406 23.585938 66.222656 25.359375 64.546875 26.890625 C 62.867188 28.429688 61.03125 29.78125 59.03125 30.9375 C 57.03125 32.101562 54.910156 33.0625 52.671875 33.8125 C 50.441406 34.46875 48.09375 34.976562 45.625 35.34375 C 43.15625 35.71875 40.566406 35.90625 37.859375 35.90625 C 33.203125 35.90625 28.734375 35.347656 24.453125 34.234375 C 22.960938 33.859375 21.539062 33.4375 20.1875 32.96875 C 18.832031 32.507812 17.523438 31.953125 16.265625 31.296875 C 15.015625 30.640625 13.785156 29.941406 12.578125 29.203125 L 10.203125 27.671875 L 11.3125 24.875 L 15.921875 13.96875 L 17.75 9.78125 L 21.375 12.578125 C 23.332031 14.160156 25.613281 15.460938 28.21875 16.484375 C 30.832031 17.515625 34.046875 18.03125 37.859375 18.03125 C 38.890625 18.03125 39.847656 17.984375 40.734375 17.890625 C 41.617188 17.796875 42.476562 17.675781 43.3125 17.53125 C 44.144531 17.394531 44.910156 17.207031 45.609375 16.96875 C 46.316406 16.738281 46.992188 16.460938 47.640625 16.140625 C 48.296875 15.816406 48.898438 15.441406 49.453125 15.015625 C 50.015625 14.597656 50.578125 14.203125 51.140625 13.828125 C 52.535156 12.429688 53.628906 10.566406 54.421875 8.234375 C 55.210938 5.910156 55.609375 3.023438 55.609375 -0.421875 L 55.609375 -1.671875 C 54.671875 -1.117188 53.738281 -0.5625 52.8125 0 C 48.8125 2.332031 44.0625 3.5 38.5625 3.5 C 37.070312 3.5 35.554688 3.40625 34.015625 3.21875 C 32.484375 3.03125 30.992188 2.722656 29.546875 2.296875 C 28.109375 1.878906 26.644531 1.394531 25.15625 0.84375 C 20.863281 -1.019531 17.039062 -3.675781 13.6875 -7.125 C 12.007812 -8.894531 10.519531 -10.828125 9.21875 -12.921875 C 7.914062 -15.015625 6.753906 -17.273438 5.734375 -19.703125 C 3.773438 -24.640625 2.796875 -30.273438 2.796875 -36.609375 C 2.796875 -42.472656 3.773438 -47.875 5.734375 -52.8125 C 6.378906 -54.488281 7.097656 -56.09375 7.890625 -57.625 C 8.679688 -59.164062 9.539062 -60.632812 10.46875 -62.03125 C 11.40625 -63.425781 12.429688 -64.734375 13.546875 -65.953125 C 16.898438 -69.671875 20.816406 -72.554688 25.296875 -74.609375 C 29.859375 -76.753906 34.742188 -77.828125 39.953125 -77.828125 Z M 41.359375 -14.671875 C 44.429688 -14.671875 47.222656 -15.367188 49.734375 -16.765625 C 51.878906 -17.972656 53.695312 -19.367188 55.1875 -20.953125 L 55.1875 -55.609375 C 53.601562 -56.628906 51.832031 -57.5625 49.875 -58.40625 C 47.550781 -59.425781 44.664062 -59.9375 41.21875 -59.9375 C 40.007812 -59.9375 38.820312 -59.816406 37.65625 -59.578125 C 36.488281 -59.347656 35.394531 -59.003906 34.375 -58.546875 C 32.132812 -57.515625 30.128906 -56.066406 28.359375 -54.203125 C 26.679688 -52.347656 25.285156 -50.019531 24.171875 -47.21875 C 23.148438 -44.332031 22.640625 -41.03125 22.640625 -37.3125 C 22.640625 -35.539062 22.773438 -33.835938 23.046875 -32.203125 C 23.328125 -30.578125 23.703125 -29.066406 24.171875 -27.671875 C 25.285156 -24.867188 26.726562 -22.488281 28.5 -20.53125 C 28.875 -20.070312 29.289062 -19.628906 29.75 -19.203125 C 30.21875 -18.785156 30.707031 -18.390625 31.21875 -18.015625 C 31.738281 -17.648438 32.253906 -17.300781 32.765625 -16.96875 C 33.273438 -16.644531 33.8125 -16.390625 34.375 -16.203125 C 35.488281 -15.648438 36.628906 -15.253906 37.796875 -15.015625 C 38.960938 -14.785156 40.148438 -14.671875 41.359375 -14.671875 Z M 41.359375 -14.671875 "/></g></g></g><g fill="#20335f" fill-opacity="1"><g transform="translate(484.423374, 158.250003)"><g><path d="M 23.75 3.5 L 7.6875 3.5 L 7.6875 -76.140625 L 27.25 -76.140625 L 27.25 3.5 Z M 17.46875 -81.59375 C 14.113281 -81.59375 11.222656 -82.800781 8.796875 -85.21875 C 6.378906 -87.644531 5.171875 -90.535156 5.171875 -93.890625 C 5.171875 -97.523438 6.3125 -100.484375 8.59375 -102.765625 C 10.875 -105.046875 13.832031 -106.1875 17.46875 -106.1875 C 19.144531 -106.1875 20.726562 -105.882812 22.21875 -105.28125 C 23.707031 -104.675781 25.03125 -103.789062 26.1875 -102.625 C 27.351562 -101.457031 28.238281 -100.128906 28.84375 -98.640625 C 29.457031 -97.148438 29.765625 -95.566406 29.765625 -93.890625 C 29.765625 -90.253906 28.617188 -87.296875 26.328125 -85.015625 C 24.046875 -82.734375 21.09375 -81.59375 17.46875 -81.59375 Z M 17.46875 -81.59375 "/></g></g></g><g fill="#20335f" fill-opacity="1"><g transform="translate(519.351084, 158.250003)"><g><path d="M 12.578125 -19 C 14.628906 -17.132812 17.28125 -15.644531 20.53125 -14.53125 C 23.789062 -13.320312 27.332031 -12.71875 31.15625 -12.71875 C 35.71875 -12.71875 39.023438 -13.367188 41.078125 -14.671875 C 42.660156 -15.785156 43.453125 -17.039062 43.453125 -18.4375 C 43.453125 -19.375 43.265625 -20.210938 42.890625 -20.953125 C 42.609375 -21.703125 42.050781 -22.445312 41.21875 -23.1875 C 40.101562 -24.125 38.519531 -25.054688 36.46875 -25.984375 C 35.90625 -26.171875 35.296875 -26.40625 34.640625 -26.6875 C 33.992188 -26.96875 33.296875 -27.242188 32.546875 -27.515625 C 31.804688 -27.796875 31.039062 -28.097656 30.25 -28.421875 C 29.457031 -28.753906 28.597656 -29.0625 27.671875 -29.34375 C 25.242188 -30.175781 23.03125 -31.054688 21.03125 -31.984375 C 19.03125 -32.921875 17.191406 -33.925781 15.515625 -35 C 13.835938 -36.070312 12.34375 -37.210938 11.03125 -38.421875 C 8.988281 -40.378906 7.453125 -42.707031 6.421875 -45.40625 C 5.398438 -48.101562 4.890625 -51.082031 4.890625 -54.34375 C 4.890625 -57.695312 5.632812 -60.863281 7.125 -63.84375 C 7.6875 -64.78125 8.289062 -65.691406 8.9375 -66.578125 C 9.59375 -67.460938 10.289062 -68.300781 11.03125 -69.09375 C 11.78125 -69.882812 12.617188 -70.601562 13.546875 -71.25 C 16.253906 -73.394531 19.515625 -75.023438 23.328125 -76.140625 C 27.054688 -77.265625 31.296875 -77.828125 36.046875 -77.828125 C 41.078125 -77.828125 45.546875 -77.3125 49.453125 -76.28125 C 51.410156 -75.726562 53.25 -75.125 54.96875 -74.46875 C 56.695312 -73.8125 58.304688 -73.066406 59.796875 -72.234375 L 62.59375 -70.84375 L 61.609375 -68.046875 L 58.125 -57.703125 L 56.71875 -53.65625 L 52.953125 -55.75 C 50.710938 -57.144531 48.148438 -58.257812 45.265625 -59.09375 C 42.285156 -59.9375 39.023438 -60.359375 35.484375 -60.359375 C 34.085938 -60.359375 32.804688 -60.265625 31.640625 -60.078125 C 30.484375 -59.890625 29.484375 -59.632812 28.640625 -59.3125 C 27.804688 -58.988281 27.109375 -58.59375 26.546875 -58.125 C 25.617188 -57.46875 24.988281 -56.835938 24.65625 -56.234375 C 24.332031 -55.628906 24.171875 -55.046875 24.171875 -54.484375 C 24.171875 -53.835938 24.265625 -53.28125 24.453125 -52.8125 C 24.640625 -52.4375 25.054688 -52.019531 25.703125 -51.5625 C 26.640625 -50.90625 27.898438 -50.203125 29.484375 -49.453125 C 30.410156 -49.085938 31.410156 -48.691406 32.484375 -48.265625 C 33.554688 -47.847656 34.789062 -47.410156 36.1875 -46.953125 C 37.394531 -46.484375 38.535156 -46.035156 39.609375 -45.609375 C 40.679688 -45.191406 41.726562 -44.773438 42.75 -44.359375 C 43.78125 -43.941406 44.738281 -43.519531 45.625 -43.09375 C 46.507812 -42.675781 47.367188 -42.285156 48.203125 -41.921875 C 51.742188 -40.054688 54.628906 -38.050781 56.859375 -35.90625 C 59.191406 -33.582031 60.820312 -31.019531 61.75 -28.21875 C 62.78125 -25.519531 63.296875 -22.585938 63.296875 -19.421875 C 63.296875 -15.597656 62.457031 -12.101562 60.78125 -8.9375 C 59.101562 -5.863281 56.820312 -3.257812 53.9375 -1.125 C 52.445312 -0.09375 50.835938 0.816406 49.109375 1.609375 C 47.390625 2.398438 45.550781 3.070312 43.59375 3.625 C 39.675781 4.65625 35.390625 5.171875 30.734375 5.171875 C 24.773438 5.171875 19.421875 4.425781 14.671875 2.9375 C 9.921875 1.351562 5.960938 -0.648438 2.796875 -3.078125 L 0.421875 -4.890625 L 1.8125 -7.40625 L 7.125 -17.890625 L 9.078125 -21.9375 Z M 12.578125 -19 "/></g></g></g><g fill="#20335f" fill-opacity="1"><g transform="translate(584.7358, 158.250003)"><g><path d="M 16.90625 -96.40625 L 30.046875 -96.40625 L 30.046875 -73.484375 L 50.15625 -73.484375 L 50.15625 -55.609375 L 30.046875 -55.609375 L 30.046875 -24.03125 C 30.046875 -21.695312 30.273438 -19.785156 30.734375 -18.296875 C 31.203125 -16.898438 31.765625 -15.832031 32.421875 -15.09375 C 33.066406 -14.34375 33.859375 -13.828125 34.796875 -13.546875 C 35.347656 -13.359375 35.90625 -13.21875 36.46875 -13.125 C 37.03125 -13.039062 37.585938 -13 38.140625 -13 C 40.097656 -13 41.867188 -13.273438 43.453125 -13.828125 C 45.410156 -14.578125 47.226562 -15.414062 48.90625 -16.34375 L 52.53125 -18.296875 L 53.9375 -14.390625 L 57.421875 -4.328125 L 58.265625 -1.671875 L 55.890625 -0.28125 C 53.835938 1.019531 51.085938 2.234375 47.640625 3.359375 C 45.867188 4.003906 44.050781 4.46875 42.1875 4.75 C 40.332031 5.03125 38.472656 5.171875 36.609375 5.171875 C 28.597656 5.171875 22.21875 2.515625 17.46875 -2.796875 C 15.039062 -5.492188 13.269531 -8.707031 12.15625 -12.4375 C 11.039062 -16.164062 10.484375 -20.359375 10.484375 -25.015625 L 10.484375 -55.609375 L -2.09375 -55.609375 L -2.09375 -73.484375 L 11.171875 -73.484375 L 13.40625 -93.328125 L 13.828125 -96.40625 Z M 16.90625 -96.40625 "/></g></g></g><g fill="#20335f" fill-opacity="1"><g transform="translate(640.201054, 158.250003)"><g><path d="M 2.796875 -35.90625 C 2.796875 -41.675781 3.679688 -47.125 5.453125 -52.25 C 7.316406 -57.375 9.921875 -61.800781 13.265625 -65.53125 C 16.617188 -69.34375 20.648438 -72.34375 25.359375 -74.53125 C 30.066406 -76.726562 35.164062 -77.828125 40.65625 -77.828125 C 45.3125 -77.828125 49.550781 -77.035156 53.375 -75.453125 C 54.769531 -74.796875 56.117188 -74.097656 57.421875 -73.359375 L 57.421875 -76.140625 L 75.875 -76.140625 L 75.875 -17.609375 C 75.875 -15.367188 76.195312 -14.0625 76.84375 -13.6875 C 77.957031 -12.945312 79.21875 -12.578125 80.625 -12.578125 L 85.234375 -12.578125 L 83.96875 -8.109375 L 81.3125 1.671875 L 80.625 4.1875 L 77.96875 4.1875 C 69.863281 4.1875 64.132812 1.535156 60.78125 -3.765625 C 60.59375 -3.585938 60.453125 -3.453125 60.359375 -3.359375 C 59.515625 -2.515625 58.628906 -1.71875 57.703125 -0.96875 C 56.773438 -0.226562 55.796875 0.421875 54.765625 0.984375 C 52.628906 2.285156 50.234375 3.304688 47.578125 4.046875 C 44.921875 4.796875 42.054688 5.171875 38.984375 5.171875 C 36.460938 5.171875 34.015625 4.910156 31.640625 4.390625 C 29.265625 3.878906 26.960938 3.160156 24.734375 2.234375 C 20.347656 0.273438 16.523438 -2.515625 13.265625 -6.140625 C 10.015625 -9.773438 7.457031 -14.109375 5.59375 -19.140625 C 3.726562 -24.078125 2.796875 -29.664062 2.796875 -35.90625 Z M 41.78125 -13 C 44.757812 -13.09375 47.550781 -13.789062 50.15625 -15.09375 C 51 -15.550781 51.789062 -16.035156 52.53125 -16.546875 C 53.28125 -17.066406 53.957031 -17.601562 54.5625 -18.15625 C 55.164062 -18.71875 55.75 -19.28125 56.3125 -19.84375 L 56.3125 -55.75 C 54.445312 -56.863281 52.441406 -57.796875 50.296875 -58.546875 C 47.691406 -59.472656 44.898438 -59.9375 41.921875 -59.9375 C 39.117188 -59.9375 36.550781 -59.398438 34.21875 -58.328125 C 31.894531 -57.253906 29.894531 -55.695312 28.21875 -53.65625 C 26.445312 -51.695312 25.097656 -49.226562 24.171875 -46.25 C 23.148438 -43.269531 22.640625 -39.960938 22.640625 -36.328125 C 22.640625 -32.785156 23.148438 -29.570312 24.171875 -26.6875 C 24.640625 -25.195312 25.222656 -23.84375 25.921875 -22.625 C 26.617188 -21.414062 27.382812 -20.300781 28.21875 -19.28125 C 29.0625 -18.257812 29.992188 -17.351562 31.015625 -16.5625 C 32.035156 -15.769531 33.109375 -15.140625 34.234375 -14.671875 C 35.347656 -14.109375 36.535156 -13.6875 37.796875 -13.40625 C 39.054688 -13.132812 40.382812 -13 41.78125 -13 Z M 41.78125 -13 "/></g></g></g><g fill="#20335f" fill-opacity="1"><g transform="translate(726.402665, 158.250003)"><g><path d="M 16.90625 -96.40625 L 30.046875 -96.40625 L 30.046875 -73.484375 L 50.15625 -73.484375 L 50.15625 -55.609375 L 30.046875 -55.609375 L 30.046875 -24.03125 C 30.046875 -21.695312 30.273438 -19.785156 30.734375 -18.296875 C 31.203125 -16.898438 31.765625 -15.832031 32.421875 -15.09375 C 33.066406 -14.34375 33.859375 -13.828125 34.796875 -13.546875 C 35.347656 -13.359375 35.90625 -13.21875 36.46875 -13.125 C 37.03125 -13.039062 37.585938 -13 38.140625 -13 C 40.097656 -13 41.867188 -13.273438 43.453125 -13.828125 C 45.410156 -14.578125 47.226562 -15.414062 48.90625 -16.34375 L 52.53125 -18.296875 L 53.9375 -14.390625 L 57.421875 -4.328125 L 58.265625 -1.671875 L 55.890625 -0.28125 C 53.835938 1.019531 51.085938 2.234375 47.640625 3.359375 C 45.867188 4.003906 44.050781 4.46875 42.1875 4.75 C 40.332031 5.03125 38.472656 5.171875 36.609375 5.171875 C 28.597656 5.171875 22.21875 2.515625 17.46875 -2.796875 C 15.039062 -5.492188 13.269531 -8.707031 12.15625 -12.4375 C 11.039062 -16.164062 10.484375 -20.359375 10.484375 -25.015625 L 10.484375 -55.609375 L -2.09375 -55.609375 L -2.09375 -73.484375 L 11.171875 -73.484375 L 13.40625 -93.328125 L 13.828125 -96.40625 Z M 16.90625 -96.40625 "/></g></g></g><g fill="#20335f" fill-opacity="1"><g transform="translate(781.867918, 158.250003)"><g><path d="M 23.328125 -27.671875 C 24.359375 -23.566406 26.128906 -20.257812 28.640625 -17.75 C 31.898438 -14.582031 36.28125 -13 41.78125 -13 C 43.082031 -13 44.335938 -13.039062 45.546875 -13.125 C 46.753906 -13.21875 47.914062 -13.359375 49.03125 -13.546875 C 50.15625 -13.734375 51.226562 -13.96875 52.25 -14.25 C 53.28125 -14.53125 54.304688 -14.832031 55.328125 -15.15625 C 56.347656 -15.488281 57.347656 -15.835938 58.328125 -16.203125 C 59.304688 -16.578125 60.3125 -17 61.34375 -17.46875 L 64.96875 -19.140625 L 66.09375 -15.234375 L 69.015625 -4.46875 L 69.859375 -1.53125 L 67.203125 -0.28125 C 63.566406 1.394531 59.515625 2.695312 55.046875 3.625 C 52.816406 4.1875 50.46875 4.582031 48 4.8125 C 45.53125 5.050781 42.941406 5.171875 40.234375 5.171875 C 34.554688 5.171875 29.390625 4.238281 24.734375 2.375 C 20.078125 0.414062 16.117188 -2.378906 12.859375 -6.015625 C 9.597656 -9.546875 7.082031 -13.921875 5.3125 -19.140625 C 3.632812 -24.171875 2.796875 -29.898438 2.796875 -36.328125 C 2.796875 -42.097656 3.632812 -47.5 5.3125 -52.53125 C 6.238281 -55.050781 7.304688 -57.425781 8.515625 -59.65625 C 9.734375 -61.894531 11.132812 -63.945312 12.71875 -65.8125 C 15.882812 -69.53125 19.703125 -72.460938 24.171875 -74.609375 C 28.640625 -76.753906 33.625 -77.828125 39.125 -77.828125 C 40.988281 -77.828125 42.78125 -77.707031 44.5 -77.46875 C 46.21875 -77.238281 47.890625 -76.914062 49.515625 -76.5 C 51.148438 -76.082031 52.710938 -75.546875 54.203125 -74.890625 C 56.441406 -73.867188 58.46875 -72.679688 60.28125 -71.328125 C 62.101562 -69.972656 63.757812 -68.410156 65.25 -66.640625 C 68.132812 -63.191406 70.320312 -59.234375 71.8125 -54.765625 C 72.46875 -52.535156 72.976562 -50.234375 73.34375 -47.859375 C 73.71875 -45.484375 73.90625 -43.082031 73.90625 -40.65625 C 73.90625 -40.007812 73.90625 -39.359375 73.90625 -38.703125 C 73.90625 -38.046875 73.878906 -37.367188 73.828125 -36.671875 C 73.785156 -35.972656 73.765625 -35.296875 73.765625 -34.640625 C 73.765625 -33.992188 73.738281 -33.367188 73.6875 -32.765625 C 73.644531 -32.160156 73.578125 -31.53125 73.484375 -30.875 L 73.21875 -27.671875 Z M 38.84375 -59.9375 C 34.375 -59.9375 30.738281 -58.445312 27.9375 -55.46875 C 26.820312 -54.257812 25.84375 -52.769531 25 -51 C 24.164062 -49.226562 23.515625 -47.175781 23.046875 -44.84375 L 55.1875 -44.84375 C 54.71875 -49.320312 53.320312 -52.816406 51 -55.328125 C 48.113281 -58.398438 44.0625 -59.9375 38.84375 -59.9375 Z M 38.84375 -59.9375 "/></g></g></g></svg>