<svg width="19" height="24" viewBox="0 0 19 24" fill="none" xmlns="http://www.w3.org/2000/svg">
<path id="Vector" d="M13.8089 9.98053C13.8662 10.0349 13.8996 10.1099 13.9018 10.1891C13.9041 10.2682 13.8749 10.345 13.8209 10.4026L7.94675 16.6576C7.91949 16.6867 7.88672 16.7099 7.85037 16.726C7.81403 16.742 7.77485 16.7506 7.73515 16.7512C7.69545 16.7517 7.65605 16.7443 7.61926 16.7293C7.58248 16.7143 7.54906 16.692 7.52099 16.6637L5.18475 14.3143C5.15718 14.2865 5.13531 14.2536 5.12039 14.2174C5.10547 14.1812 5.09779 14.1423 5.09779 14.1031C5.09779 14.0639 5.10547 14.0251 5.12039 13.9889C5.13531 13.9526 5.15718 13.9197 5.18475 13.892L6.02448 13.0475C6.05205 13.0197 6.08478 12.9977 6.1208 12.9827C6.15682 12.9677 6.19543 12.96 6.23442 12.96C6.27341 12.96 6.31201 12.9677 6.34803 12.9827C6.38405 12.9977 6.41678 13.0197 6.44435 13.0475L7.48456 14.0936C7.51263 14.1219 7.54605 14.1441 7.58284 14.1591C7.61963 14.1742 7.65903 14.1816 7.69873 14.181C7.73843 14.1805 7.77761 14.1719 7.81395 14.1558C7.85029 14.1397 7.88306 14.1165 7.91032 14.0875L12.5258 9.17242C12.5799 9.11486 12.6545 9.08125 12.7332 9.079C12.8119 9.07674 12.8883 9.10602 12.9455 9.16039L13.8089 9.98053ZM18.5381 5.33938C18.669 5.36995 18.7858 5.44405 18.8696 5.54969C18.9535 5.65533 18.9994 5.78632 19 5.92147C18.9987 13.868 18.8409 18.3769 15.2186 21.2663C11.977 23.852 7.02305 23.852 3.78144 21.2663C0.159072 18.3769 0.00135678 13.868 0 5.92147C0.000600851 5.78633 0.0465247 5.65534 0.13034 5.5497C0.214156 5.44407 0.33096 5.36996 0.461853 5.33938C5.47361 4.15255 8.13607 2.01093 9.08789 1.09815C9.19878 0.991296 9.34642 0.931641 9.5 0.931641C9.65358 0.931641 9.80122 0.991296 9.9121 1.09815C10.8639 2.01093 13.5264 4.15255 18.5381 5.33938ZM16.9197 7.52929C16.9196 7.39995 16.8778 7.27414 16.8007 7.17067C16.7235 7.06719 16.6152 6.99162 16.4917 6.95526C14.259 6.28957 12.2659 5.38024 10.5464 4.24179C10.2946 4.07484 10.0618 3.91131 9.84747 3.75336C9.74685 3.67864 9.62507 3.63833 9.5 3.63833C9.37493 3.63833 9.25315 3.67864 9.15253 3.75336C8.93823 3.91118 8.70539 4.07484 8.45356 4.24179C6.73414 5.38024 4.74097 6.28957 2.50825 6.95526C2.38485 6.99162 2.27646 7.06719 2.19932 7.17067C2.12217 7.27414 2.08041 7.39995 2.08029 7.52929C2.09797 12.8882 2.31887 16.1805 3.83458 18.4087C6.32743 22.0734 12.6726 22.0734 15.1654 18.4087C16.6811 16.1805 16.902 12.8882 16.9197 7.52929Z" fill="#222222"/>
</svg>
