<svg xmlns="http://www.w3.org/2000/svg" width="88" height="88" viewBox="0 0 88 88" fill="none">
  <path d="M71.3016 55.0491C68.9239 61.3085 64.5915 66.6345 58.9473 70.2369C53.3032 73.8393 46.648 75.5261 39.9694 75.0469C33.2908 74.5678 26.9446 71.9484 21.8724 67.5772C16.8003 63.2061 13.2725 57.3162 11.8126 50.7815C10.3526 44.2468 11.0383 37.4156 13.7679 31.3014C16.4974 25.1872 21.1254 20.1159 26.9651 16.84C32.8048 13.5641 39.545 12.2582 46.1856 13.1159C52.8262 13.9737 59.0134 16.9495 63.829 21.6018" stroke="#222222" stroke-width="3.5" stroke-miterlimit="10" stroke-linecap="round"/>
  <path d="M60.8947 51.4588C60.2671 53.043 59.439 54.5402 58.4307 55.9138C56.0745 59.132 52.817 61.5793 49.0699 62.9461C45.3229 64.313 41.2547 64.5381 37.3798 63.5929C33.5049 62.6477 29.9973 60.5747 27.3005 57.636C24.6037 54.6973 22.8389 51.025 22.2292 47.0833C21.6195 43.1416 22.1923 39.1077 23.8753 35.4916C25.5582 31.8755 28.2756 28.8396 31.6838 26.7679C35.0921 24.6961 39.0382 23.6816 43.0231 23.8525C47.0079 24.0234 50.8526 25.3722 54.071 27.7281C54.5293 28.0655 54.973 28.4175 55.3947 28.7841" stroke="#222222" stroke-width="3.5" stroke-miterlimit="10" stroke-linecap="round"/>
  <path d="M49.5469 49.4163C48.4758 50.8791 46.995 51.9914 45.2917 52.6125C43.5884 53.2337 41.7392 53.3358 39.9779 52.906C38.2165 52.4762 36.6222 51.5337 35.3965 50.1978C34.1709 48.8619 33.3688 47.1925 33.0919 45.4007C32.815 43.609 33.0756 41.7754 33.8408 40.1318C34.606 38.4882 35.8414 37.1084 37.3908 36.1669C38.9402 35.2254 40.734 34.7645 42.5453 34.8425C44.3566 34.9204 46.1042 35.5338 47.5669 36.605" stroke="#222222" stroke-width="3.5" stroke-miterlimit="10" stroke-linecap="round"/>
  <path d="M59.5057 40.0176L43.4971 43.7686" stroke="#222222" stroke-width="3.5" stroke-miterlimit="10" stroke-linecap="round"/>
  <path d="M74.4932 36.5048L80.3086 40.1128C80.5899 40.2874 80.8131 40.5415 80.9501 40.8429C81.0871 41.1443 81.1318 41.4796 81.0784 41.8064C81.0251 42.1331 80.8761 42.4368 80.6503 42.6789C80.4246 42.9211 80.1321 43.091 79.8099 43.1671L68.7549 45.7558L59.5039 40.0175L65.2422 30.7665L76.2972 28.1778C76.6197 28.1015 76.9575 28.1226 77.2679 28.2387C77.5783 28.3547 77.8472 28.5603 78.0405 28.8294C78.2338 29.0985 78.3427 29.419 78.3536 29.7502C78.3644 30.0814 78.2766 30.4083 78.1012 30.6895L74.4932 36.5048Z" stroke="#222222" stroke-width="3.5" stroke-linecap="round" stroke-linejoin="round"/>
</svg>