<svg width="20" height="30" viewBox="0 0 20 30" fill="none" xmlns="http://www.w3.org/2000/svg">
<path d="M2.14387 16.5978C2.14387 14.1984 2.00178 11.6889 2.77877 9.38498C3.50225 7.23972 5.12509 4.64878 7.171 3.52C7.82227 3.16068 9.2767 2.64677 9.99681 2.93714C10.9914 3.33817 10.8243 5.41146 10.8347 6.23132C10.8699 9.00583 10.285 11.8247 9.54406 14.485C8.56889 17.9864 7.42413 21.4357 6.47366 24.9452C6.25332 25.7587 5.45953 28.1512 5.81274 27.3859C6.10625 26.7499 6.5554 26.1574 6.94203 25.58C8.63796 23.0475 10.3952 20.5545 12.2398 18.1278C13.4009 16.6004 14.6136 15.1693 15.9867 13.8293C16.3054 13.5182 17.0712 13.032 17.2253 12.5699" stroke="white" stroke-width="4" stroke-linecap="round"/>
</svg>
