<svg width="218" height="218" viewBox="0 0 218 218" fill="none" xmlns="http://www.w3.org/2000/svg">
<g clip-path="url(#clip0_2709_13245)">
<rect width="218" height="218" rx="109" fill="white"/>
<g clip-path="url(#clip1_2709_13245)">
<path d="M-9.5293 0H316.531V218H-9.5293V0Z" fill="#E30A17"/>
<path d="M141.726 109L190.881 92.9843L160.5 134.917V83.0834L190.881 125.016L141.726 109ZM145.077 138.143C138.781 148.121 129.424 155.778 118.414 159.963C107.404 164.148 95.337 164.633 84.0283 161.346C72.7197 158.059 62.7813 151.177 55.7089 141.737C48.6364 132.297 44.8125 120.808 44.8125 109C44.8125 97.192 48.6364 85.7034 55.7089 76.263C62.7813 66.8226 72.7197 59.9412 84.0283 56.6542C95.337 53.3672 107.404 53.8525 118.414 58.037C129.424 62.2216 138.781 69.879 145.077 79.857C139.198 73.2958 131.472 68.6775 122.921 66.612C114.369 64.5465 105.394 65.1311 97.1808 68.2884C88.9675 71.4457 81.9024 77.0274 76.9185 84.2961C71.9347 91.5648 69.2665 100.179 69.2665 109C69.2665 117.821 71.9347 126.435 76.9185 133.704C81.9024 140.973 88.9675 146.554 97.1808 149.712C105.394 152.869 114.369 153.453 122.921 151.388C131.472 149.323 139.198 144.704 145.077 138.143Z" fill="white"/>
</g>
</g>
<defs>
<clipPath id="clip0_2709_13245">
<rect width="218" height="218" rx="109" fill="white"/>
</clipPath>
<clipPath id="clip1_2709_13245">
<rect width="326.06" height="218" fill="white" transform="translate(-9.5293)"/>
</clipPath>
</defs>
</svg>
