<svg xmlns="http://www.w3.org/2000/svg" width="88" height="88" viewBox="0 0 88 88" fill="none">
<path d="M11.4672 44.1598L11.1896 44.7832C10.3654 46.6341 11.1977 48.8027 13.0486 49.6269L35.6567 59.6941C37.5076 60.5183 39.6762 59.686 40.5004 57.8351L40.7779 57.2118C41.6021 55.3609 40.7698 53.1923 38.9189 52.3681L16.3108 42.3008C14.4599 41.4766 12.2914 42.3089 11.4672 44.1598Z" stroke="#222222" stroke-width="3.5" stroke-miterlimit="10" stroke-linecap="round"/>
<path d="M26.1115 11.2048L25.8341 11.8278C25.0105 13.6778 25.8425 15.8452 27.6924 16.6689L50.2893 26.7296C52.1393 27.5533 54.3067 26.7213 55.1303 24.8713L55.4077 24.2483C56.2314 22.3983 55.3994 20.2309 53.5494 19.4073L30.9526 9.34649C29.1026 8.52283 26.9352 9.35482 26.1115 11.2048Z" stroke="#222222" stroke-width="3.5" stroke-miterlimit="10" stroke-linecap="round"/>
<path d="M28.0057 16.8095L16.5938 42.4412L38.5642 52.223L49.9762 26.5914L28.0057 16.8095Z" stroke="#222222" stroke-width="3.5" stroke-miterlimit="10" stroke-linecap="round"/>
<path d="M51.4003 38.1873L77.98 46.2539C78.5239 46.4189 79.0265 46.6978 79.4545 47.0719C79.8824 47.4461 80.2259 47.907 80.462 48.424C80.6982 48.9411 80.8216 49.5024 80.8242 50.0709C80.8268 50.6393 80.7084 51.2018 80.477 51.7209L77.65 58.0716C77.4188 58.591 77.0799 59.0552 76.6555 59.4335C76.2312 59.8118 75.7313 60.0956 75.1889 60.2658C74.6465 60.4361 74.0741 60.489 73.5097 60.4211C72.9453 60.3532 72.4018 60.166 71.9153 59.8719L48.1406 45.5169" stroke="#222222" stroke-width="3.5" stroke-miterlimit="10" stroke-linecap="round"/>
<path d="M13.7637 78.7422L16.598 70.2502C16.8411 69.5204 17.3075 68.8855 17.9314 68.4354C18.5552 67.9853 19.3048 67.7428 20.074 67.7422H40.457C41.2262 67.7428 41.9758 67.9853 42.5996 68.4354C43.2235 68.8855 43.6899 69.5204 43.933 70.2502L46.7637 78.7422" stroke="#222222" stroke-width="3.5" stroke-linecap="round" stroke-linejoin="round"/>
<path d="M10.0996 78.834H50.4329" stroke="#222222" stroke-width="3.5" stroke-linecap="round" stroke-linejoin="round"/>
</svg>