<?xml version="1.0" encoding="UTF-8"?><svg version="1.1" width="512px" height="512px" viewBox="0 0 512.0 512.0" xmlns="http://www.w3.org/2000/svg" xmlns:xlink="http://www.w3.org/1999/xlink"><defs><clipPath id="i0"><path d="M19.9872607,0 C31.02592,0 39.9745215,8.93784488 39.9745215,19.9632353 C39.9745215,30.9886257 31.02592,39.9264706 19.9872607,39.9264706 C8.94860145,39.9264706 0,30.9886257 0,19.9632353 C0,8.93784488 8.94860145,0 19.9872607,0 Z"></path></clipPath><clipPath id="i1"><path d="M31.9796172,0 C49.6414721,0 63.9592344,14.3005518 63.9592344,31.9411765 C63.9592344,49.5818011 49.6414721,63.8823529 31.9796172,63.8823529 C14.3177623,63.8823529 0,49.5818011 0,31.9411765 C0,14.3005518 14.3177623,0 31.9796172,0 Z"></path></clipPath><clipPath id="i2"><path d="M33.3700353,0 C51.7997969,0 66.7400707,14.59848 66.7400707,32.6066176 C66.7400707,50.6147553 51.7997969,65.2132353 33.3700353,65.2132353 C14.9402737,65.2132353 0,50.6147553 0,32.6066176 C0,14.59848 14.9402737,0 33.3700353,0 Z"></path></clipPath><clipPath id="i3"><path d="M11.1233451,0 C17.2662124,0 22.2466902,4.86653768 22.2466902,10.8688725 L22.2466902,76.0821078 C22.2466902,82.0844427 17.2662124,86.9509804 11.1233451,86.9509804 C4.98047777,86.9509804 0,82.0844427 0,76.0821078 L0,10.8688725 C0,4.86653768 4.98047777,0 11.1233451,0 Z"></path></clipPath><clipPath id="i4"><path d="M166.850177,0 C258.851364,0 333.700353,73.1366434 333.700353,163.033088 L333.700353,184.770833 C333.700353,190.773168 328.719876,195.639706 322.577008,195.639706 L11.1233451,195.639706 C4.98047777,195.639706 0,190.773168 0,184.770833 L0,163.033088 C0,73.1366434 74.8489893,0 166.850177,0 Z"></path></clipPath><clipPath id="i5"><path d="M43.2881825,0.000312662661 L44.0209189,0.00236004909 C68.4936128,0.217235294 88.4632917,15.050651 88.6244453,33.1337213 C88.7855989,51.2167916 69.0772015,65.7018257 44.6045077,65.4869505 C20.1318139,65.2720752 0.162134887,50.4386595 0.000981296583,32.3555892 C-0.160172294,14.2725189 19.5482251,-0.212515196 44.0209189,0.00236004909 Z"></path></clipPath><clipPath id="i6"><path d="M464.5,0 C490.733526,-4.81902048e-15 512,21.2664744 512,47.5 C512,73.7335256 490.733526,95 464.5,95 L47.5,95 C21.2664744,95 3.21268032e-15,73.7335256 0,47.5 C-3.21268032e-15,21.2664744 21.2664744,4.81902048e-15 47.5,0 L464.5,0 Z"></path></clipPath><clipPath id="i7"><path d="M100.110106,0 C106.253359,0 111.233451,4.86616053 111.233451,10.8688725 C111.233451,16.8715846 106.253359,21.7377451 100.110106,21.7377451 L11.1233451,21.7377451 C4.98009179,21.7377451 0,16.8715846 0,10.8688725 C0,4.86616053 4.98009179,0 11.1233451,0 Z"></path></clipPath><clipPath id="i8"><path d="M22.2466902,0 C34.533198,0 44.4933804,9.73231999 44.4933804,21.7377451 C44.4933804,33.7431702 34.533198,43.4754902 22.2466902,43.4754902 C9.96018248,43.4754902 0,33.7431702 0,21.7377451 C0,9.73231999 9.96018248,0 22.2466902,0 Z"></path></clipPath><clipPath id="i9"><path d="M22.2466902,0 C34.533198,0 44.4933804,9.73231999 44.4933804,21.7377451 C44.4933804,33.7431702 34.533198,43.4754902 22.2466902,43.4754902 C9.96018248,43.4754902 0,33.7431702 0,21.7377451 C0,9.73231999 9.96018248,0 22.2466902,0 Z"></path></clipPath></defs><g transform="translate(-1.0 48.0)"><g transform="translate(455.7095450095221 191.6470588235289)"><g clip-path="url(#i0)"><polygon points="0,0 39.9745215,0 39.9745215,39.9264706 0,39.9264706 0,0" stroke="none" fill="#010101" opacity="41.8643043%"></polygon></g></g><g transform="translate(55.9643300888638 31.941176470585905)"><g clip-path="url(#i1)"><polygon points="0,0 63.9592344,0 63.9592344,63.8823529 0,63.8823529 0,0" stroke="none" fill="#4A4A4A" opacity="41.8643043%"></polygon></g></g><g transform="translate(222.4669022166927 0.0)"><g clip-path="url(#i2)"><polygon points="0,0 66.7400707,0 66.7400707,65.2132353 0,65.2132353 0,0" stroke="none" fill="#2563EB"></polygon></g></g><g transform="translate(244.71359243837014 54.344362745099495)"><g clip-path="url(#i3)"><polygon points="0,0 22.2466902,0 22.2466902,86.9509804 0,86.9509804 0,0" stroke="none" fill="#2563EB"></polygon></g></g><g transform="translate(88.98676088666798 97.81985294117648)"><g clip-path="url(#i4)"><polygon points="0,0 333.700353,0 333.700353,195.639706 0,195.639706 0,0" stroke="none" fill="#0E172A"></polygon></g></g><g transform="translate(147.9870852516627 171.57105680064967) rotate(-24.92928643226521)"><g clip-path="url(#i5)"><polygon points="9.16600129e-13,1.79977561e-16 88.6254266,1.79977561e-16 88.6254266,65.4893105 9.16600129e-13,65.4893105 9.16600129e-13,1.79977561e-16" stroke="none" fill="#CCCCCC"></polygon></g></g><g transform="translate(0.0 285.0)"><g clip-path="url(#i6)"><polygon points="0,0 512,0 512,95 0,95 0,0" stroke="none" fill="#2563EB"></polygon></g></g><g transform="translate(289.20697288172516 322.0661764705883)"><g clip-path="url(#i7)"><polygon points="0,0 111.233451,0 111.233451,21.7377451 0,21.7377451 0,0" stroke="none" fill="#FFFFFF"></polygon></g></g><g transform="translate(133.48014133001396 311.1973039215676)"><g clip-path="url(#i8)"><polygon points="0,0 44.4933804,0 44.4933804,43.4754902 0,43.4754902 0,0" stroke="none" fill="#FFFFFF"></polygon></g></g><g transform="translate(211.3435571058658 311.1973039215694)"><g clip-path="url(#i9)"><polygon points="0,0 44.4933804,0 44.4933804,43.4754902 0,43.4754902 0,0" stroke="none" fill="#FFFFFF"></polygon></g></g></g></svg>