<svg xmlns="http://www.w3.org/2000/svg" xmlns:xlink="http://www.w3.org/1999/xlink" width="1200" zoomAndPan="magnify" viewBox="0 0 900 374.999991" height="500" preserveAspectRatio="xMidYMid meet" version="1.0"><defs><g/><clipPath id="a27a73e921"><path d="M 0 26.960938 L 375 26.960938 L 375 317.960938 L 0 317.960938 Z M 0 26.960938 " clip-rule="nonzero"/></clipPath><clipPath id="08450efaa0"><path d="M 57 161 L 323 161 L 323 371 L 57 371 Z M 57 161 " clip-rule="nonzero"/></clipPath><clipPath id="9044016220"><path d="M 58.964844 139.953125 L 325.148438 160.851562 L 307.417969 386.65625 L 41.238281 365.757812 Z M 58.964844 139.953125 " clip-rule="nonzero"/></clipPath><clipPath id="8760c790b5"><path d="M 58.964844 139.953125 L 325.148438 160.851562 L 307.417969 386.65625 L 41.238281 365.757812 Z M 58.964844 139.953125 " clip-rule="nonzero"/></clipPath></defs><g clip-path="url(#a27a73e921)"><path fill="#49a0ff" d="M 64.765625 151.847656 L 95.296875 151.847656 L 99.992188 316.121094 L 60.65625 316.125 L 64.765625 151.839844 Z M 35.988281 322.03125 L 338.976562 322.03125 L 338.976562 343.167969 L 357.128906 343.167969 L 357.128906 364.304688 L 374.734375 364.304688 L 374.734375 385.441406 L 0.230469 385.4375 L 0.230469 364.304688 L 17.835938 364.304688 L 17.835938 343.167969 L 35.988281 343.167969 Z M 354.773438 105.980469 L 187.476562 26.964844 L 20.171875 105.980469 L 20.171875 118.898438 L 354.773438 118.898438 Z M 52.429688 124.808594 L 322.527344 124.808594 L 322.527344 145.941406 L 52.429688 145.941406 Z M 279.074219 151.847656 L 309.609375 151.847656 L 314.304688 316.132812 L 274.96875 316.128906 L 279.078125 151.855469 Z M 207.640625 151.847656 L 238.171875 151.847656 L 242.867188 316.121094 L 203.53125 316.125 L 207.640625 151.839844 Z M 136.203125 151.847656 L 166.734375 151.847656 L 171.429688 316.128906 L 132.09375 316.128906 L 136.203125 151.855469 Z M 136.203125 151.847656 " fill-opacity="1" fill-rule="nonzero"/></g><g clip-path="url(#08450efaa0)"><g clip-path="url(#9044016220)"><g clip-path="url(#8760c790b5)"><path fill="#1c4ed8" d="M 58.722656 265.140625 C 77.609375 280.550781 87.851562 283.878906 102.789062 314.25 C 117.722656 344.621094 119.1875 364.601562 123.429688 368.585938 C 127.675781 372.566406 150.679688 369.8125 162.957031 364.386719 C 175.230469 358.964844 175.949219 355.496094 188.964844 330.617188 C 207.015625 296.125 235.214844 254.253906 256.234375 230.355469 C 277.253906 206.460938 319.929688 176.203125 322.242188 170 C 324.550781 163.792969 305.757812 159.351562 287.210938 163.371094 C 268.664062 167.386719 227.199219 206.414062 201.554688 237.667969 C 173.066406 272.394531 161.53125 302.6875 157.074219 301.421875 C 152.617188 300.160156 145.214844 280.976562 133.601562 266.378906 C 121.984375 251.777344 109.34375 241.515625 93.730469 243.027344 C 78.113281 244.539062 50.007812 258.035156 58.722656 265.140625 " fill-opacity="1" fill-rule="nonzero"/></g></g></g><g fill="#20335f" fill-opacity="1"><g transform="translate(325.242968, 263.347761)"><g><path d="M 59.390625 2.75 L 48.515625 -21.015625 C 46.097656 -26.347656 43.054688 -30.097656 39.390625 -32.265625 C 38.304688 -32.929688 37.097656 -33.492188 35.765625 -33.953125 C 34.429688 -34.410156 32.972656 -34.765625 31.390625 -35.015625 C 29.804688 -35.265625 28.097656 -35.429688 26.265625 -35.515625 L 26.265625 3.125 L 8.125 3.125 L 8.125 -90.15625 L 11 -90.40625 C 13.25 -90.570312 15.4375 -90.738281 17.5625 -90.90625 C 19.6875 -91.070312 21.753906 -91.195312 23.765625 -91.28125 C 27.765625 -91.53125 32.140625 -91.65625 36.890625 -91.65625 C 42.472656 -91.65625 47.429688 -91.070312 51.765625 -89.90625 C 56.179688 -88.65625 59.851562 -86.863281 62.78125 -84.53125 C 65.863281 -82.113281 68.195312 -79.28125 69.78125 -76.03125 C 71.363281 -72.78125 72.15625 -69.195312 72.15625 -65.28125 C 72.15625 -58.351562 70.03125 -52.722656 65.78125 -48.390625 C 63.101562 -45.640625 59.640625 -43.347656 55.390625 -41.515625 C 56.054688 -41.015625 56.660156 -40.515625 57.203125 -40.015625 C 57.742188 -39.515625 58.265625 -38.929688 58.765625 -38.265625 C 59.515625 -37.515625 60.222656 -36.703125 60.890625 -35.828125 C 61.554688 -34.953125 62.226562 -33.972656 62.90625 -32.890625 C 64.15625 -30.890625 65.445312 -28.429688 66.78125 -25.515625 L 76.28125 -5.125 L 77.53125 -2.25 L 74.78125 -0.875 L 63.65625 4.375 L 60.765625 5.625 Z M 36.890625 -75.40625 C 35.472656 -75.40625 34.140625 -75.40625 32.890625 -75.40625 C 31.640625 -75.40625 30.472656 -75.363281 29.390625 -75.28125 C 29.054688 -75.28125 28.679688 -75.257812 28.265625 -75.21875 C 27.847656 -75.175781 27.472656 -75.15625 27.140625 -75.15625 C 26.804688 -75.15625 26.515625 -75.15625 26.265625 -75.15625 L 26.265625 -51.765625 L 36.890625 -51.765625 C 42.222656 -51.765625 46.515625 -52.890625 49.765625 -55.140625 C 52.597656 -57.222656 54.015625 -60.226562 54.015625 -64.15625 C 54.015625 -65.738281 53.703125 -67.175781 53.078125 -68.46875 C 52.453125 -69.757812 51.429688 -70.945312 50.015625 -72.03125 C 48.597656 -73.113281 46.804688 -73.945312 44.640625 -74.53125 C 42.472656 -75.113281 39.890625 -75.40625 36.890625 -75.40625 Z M 36.890625 -75.40625 "/></g></g></g><g fill="#20335f" fill-opacity="1"><g transform="translate(402.392049, 263.347761)"><g><path d="M 20.890625 -24.765625 C 21.804688 -21.085938 23.390625 -18.125 25.640625 -15.875 C 28.554688 -13.039062 32.472656 -11.625 37.390625 -11.625 C 38.554688 -11.625 39.679688 -11.664062 40.765625 -11.75 C 41.847656 -11.832031 42.890625 -11.957031 43.890625 -12.125 C 44.890625 -12.289062 45.847656 -12.5 46.765625 -12.75 C 47.679688 -13 48.597656 -13.269531 49.515625 -13.5625 C 50.429688 -13.851562 51.328125 -14.164062 52.203125 -14.5 C 53.078125 -14.832031 53.972656 -15.207031 54.890625 -15.625 L 58.140625 -17.125 L 59.140625 -13.625 L 61.765625 -4 L 62.53125 -1.375 L 60.140625 -0.25 C 56.890625 1.25 53.265625 2.414062 49.265625 3.25 C 47.265625 3.75 45.160156 4.101562 42.953125 4.3125 C 40.742188 4.519531 38.429688 4.625 36.015625 4.625 C 30.929688 4.625 26.304688 3.789062 22.140625 2.125 C 17.960938 0.375 14.414062 -2.125 11.5 -5.375 C 8.582031 -8.539062 6.332031 -12.457031 4.75 -17.125 C 3.25 -21.632812 2.5 -26.765625 2.5 -32.515625 C 2.5 -37.679688 3.25 -42.515625 4.75 -47.015625 C 5.582031 -49.265625 6.539062 -51.390625 7.625 -53.390625 C 8.707031 -55.390625 9.957031 -57.222656 11.375 -58.890625 C 14.207031 -62.234375 17.628906 -64.863281 21.640625 -66.78125 C 25.640625 -68.695312 30.097656 -69.65625 35.015625 -69.65625 C 36.679688 -69.65625 38.285156 -69.550781 39.828125 -69.34375 C 41.367188 -69.132812 42.867188 -68.84375 44.328125 -68.46875 C 45.785156 -68.09375 47.179688 -67.613281 48.515625 -67.03125 C 50.515625 -66.113281 52.328125 -65.046875 53.953125 -63.828125 C 55.578125 -62.617188 57.054688 -61.222656 58.390625 -59.640625 C 60.972656 -56.554688 62.9375 -53.015625 64.28125 -49.015625 C 64.863281 -47.015625 65.320312 -44.953125 65.65625 -42.828125 C 65.988281 -40.703125 66.15625 -38.554688 66.15625 -36.390625 C 66.15625 -35.804688 66.15625 -35.222656 66.15625 -34.640625 C 66.15625 -34.054688 66.132812 -33.453125 66.09375 -32.828125 C 66.050781 -32.203125 66.03125 -31.597656 66.03125 -31.015625 C 66.03125 -30.429688 66.007812 -29.867188 65.96875 -29.328125 C 65.925781 -28.785156 65.863281 -28.222656 65.78125 -27.640625 L 65.53125 -24.765625 Z M 34.765625 -53.640625 C 30.765625 -53.640625 27.515625 -52.304688 25.015625 -49.640625 C 24.015625 -48.554688 23.140625 -47.222656 22.390625 -45.640625 C 21.640625 -44.054688 21.050781 -42.222656 20.625 -40.140625 L 49.390625 -40.140625 C 48.972656 -44.140625 47.722656 -47.265625 45.640625 -49.515625 C 43.054688 -52.265625 39.429688 -53.640625 34.765625 -53.640625 Z M 34.765625 -53.640625 "/></g></g></g><g fill="#20335f" fill-opacity="1"><g transform="translate(470.413289, 263.347761)"><g><path d="M 35.765625 -69.65625 C 37.847656 -69.65625 39.828125 -69.488281 41.703125 -69.15625 C 43.578125 -68.820312 45.347656 -68.28125 47.015625 -67.53125 C 48.179688 -67.03125 49.304688 -66.488281 50.390625 -65.90625 L 50.390625 -68.15625 L 66.90625 -68.15625 L 66.90625 -1.5 C 66.90625 4.25 66.113281 9.25 64.53125 13.5 C 63.78125 15.582031 62.835938 17.519531 61.703125 19.3125 C 60.578125 21.113281 59.265625 22.703125 57.765625 24.078125 C 56.265625 25.453125 54.617188 26.660156 52.828125 27.703125 C 51.035156 28.742188 49.140625 29.597656 47.140625 30.265625 C 45.140625 30.847656 43.035156 31.304688 40.828125 31.640625 C 38.617188 31.972656 36.304688 32.140625 33.890625 32.140625 C 29.722656 32.140625 25.722656 31.640625 21.890625 30.640625 C 20.546875 30.304688 19.269531 29.929688 18.0625 29.515625 C 16.851562 29.097656 15.6875 28.597656 14.5625 28.015625 C 13.4375 27.429688 12.332031 26.804688 11.25 26.140625 L 9.125 24.765625 L 10.125 22.265625 L 14.25 12.5 L 15.875 8.75 L 19.125 11.25 C 20.882812 12.664062 22.929688 13.832031 25.265625 14.75 C 27.597656 15.664062 30.472656 16.125 33.890625 16.125 C 34.804688 16.125 35.660156 16.082031 36.453125 16 C 37.242188 15.914062 38.015625 15.8125 38.765625 15.6875 C 39.515625 15.5625 40.203125 15.394531 40.828125 15.1875 C 41.453125 14.976562 42.054688 14.726562 42.640625 14.4375 C 43.222656 14.144531 43.765625 13.8125 44.265625 13.4375 C 44.765625 13.0625 45.265625 12.707031 45.765625 12.375 C 47.015625 11.125 47.992188 9.457031 48.703125 7.375 C 49.410156 5.289062 49.765625 2.707031 49.765625 -0.375 L 49.765625 -1.5 C 48.929688 -1 48.097656 -0.5 47.265625 0 C 43.679688 2.082031 39.429688 3.125 34.515625 3.125 C 33.179688 3.125 31.828125 3.039062 30.453125 2.875 C 29.078125 2.707031 27.742188 2.4375 26.453125 2.0625 C 25.160156 1.6875 23.847656 1.25 22.515625 0.75 C 18.671875 -0.914062 15.25 -3.289062 12.25 -6.375 C 10.75 -7.957031 9.414062 -9.6875 8.25 -11.5625 C 7.082031 -13.4375 6.039062 -15.457031 5.125 -17.625 C 3.375 -22.050781 2.5 -27.097656 2.5 -32.765625 C 2.5 -38.015625 3.375 -42.847656 5.125 -47.265625 C 5.707031 -48.765625 6.351562 -50.203125 7.0625 -51.578125 C 7.769531 -52.953125 8.539062 -54.265625 9.375 -55.515625 C 10.207031 -56.765625 11.125 -57.929688 12.125 -59.015625 C 15.125 -62.359375 18.628906 -64.945312 22.640625 -66.78125 C 26.722656 -68.695312 31.097656 -69.65625 35.765625 -69.65625 Z M 37.015625 -13.125 C 39.765625 -13.125 42.265625 -13.75 44.515625 -15 C 46.429688 -16.082031 48.054688 -17.332031 49.390625 -18.75 L 49.390625 -49.765625 C 47.972656 -50.679688 46.390625 -51.515625 44.640625 -52.265625 C 42.554688 -53.179688 39.972656 -53.640625 36.890625 -53.640625 C 35.804688 -53.640625 34.742188 -53.535156 33.703125 -53.328125 C 32.660156 -53.117188 31.679688 -52.804688 30.765625 -52.390625 C 28.765625 -51.472656 26.972656 -50.179688 25.390625 -48.515625 C 23.890625 -46.847656 22.640625 -44.765625 21.640625 -42.265625 C 20.710938 -39.679688 20.25 -36.722656 20.25 -33.390625 C 20.25 -31.804688 20.375 -30.285156 20.625 -28.828125 C 20.882812 -27.367188 21.222656 -26.015625 21.640625 -24.765625 C 22.640625 -22.265625 23.929688 -20.132812 25.515625 -18.375 C 25.847656 -17.957031 26.222656 -17.5625 26.640625 -17.1875 C 27.054688 -16.8125 27.492188 -16.457031 27.953125 -16.125 C 28.410156 -15.789062 28.867188 -15.476562 29.328125 -15.1875 C 29.785156 -14.894531 30.265625 -14.664062 30.765625 -14.5 C 31.765625 -14 32.785156 -13.644531 33.828125 -13.4375 C 34.867188 -13.226562 35.929688 -13.125 37.015625 -13.125 Z M 37.015625 -13.125 "/></g></g></g><g fill="#20335f" fill-opacity="1"><g transform="translate(543.561115, 263.347761)"><g><path d="M 21.265625 3.125 L 6.875 3.125 L 6.875 -68.15625 L 24.390625 -68.15625 L 24.390625 3.125 Z M 15.625 -73.03125 C 12.625 -73.03125 10.039062 -74.113281 7.875 -76.28125 C 5.707031 -78.445312 4.625 -81.03125 4.625 -84.03125 C 4.625 -87.28125 5.644531 -89.925781 7.6875 -91.96875 C 9.726562 -94.007812 12.375 -95.03125 15.625 -95.03125 C 17.125 -95.03125 18.539062 -94.757812 19.875 -94.21875 C 21.21875 -93.675781 22.410156 -92.882812 23.453125 -91.84375 C 24.492188 -90.800781 25.285156 -89.613281 25.828125 -88.28125 C 26.367188 -86.945312 26.640625 -85.53125 26.640625 -84.03125 C 26.640625 -80.78125 25.613281 -78.132812 23.5625 -76.09375 C 21.519531 -74.050781 18.875 -73.03125 15.625 -73.03125 Z M 15.625 -73.03125 "/></g></g></g><g fill="#20335f" fill-opacity="1"><g transform="translate(574.820879, 263.347761)"><g><path d="M 11.25 -17 C 13.082031 -15.332031 15.457031 -14 18.375 -13 C 21.300781 -11.914062 24.472656 -11.375 27.890625 -11.375 C 31.972656 -11.375 34.929688 -11.957031 36.765625 -13.125 C 38.179688 -14.125 38.890625 -15.25 38.890625 -16.5 C 38.890625 -17.332031 38.722656 -18.082031 38.390625 -18.75 C 38.140625 -19.414062 37.640625 -20.082031 36.890625 -20.75 C 35.890625 -21.59375 34.472656 -22.429688 32.640625 -23.265625 C 32.140625 -23.429688 31.597656 -23.640625 31.015625 -23.890625 C 30.429688 -24.140625 29.804688 -24.390625 29.140625 -24.640625 C 28.472656 -24.890625 27.785156 -25.160156 27.078125 -25.453125 C 26.367188 -25.742188 25.597656 -26.015625 24.765625 -26.265625 C 22.597656 -27.015625 20.613281 -27.804688 18.8125 -28.640625 C 17.019531 -29.472656 15.375 -30.367188 13.875 -31.328125 C 12.375 -32.285156 11.039062 -33.304688 9.875 -34.390625 C 8.039062 -36.140625 6.664062 -38.222656 5.75 -40.640625 C 4.832031 -43.054688 4.375 -45.722656 4.375 -48.640625 C 4.375 -51.640625 5.039062 -54.472656 6.375 -57.140625 C 6.875 -57.972656 7.414062 -58.785156 8 -59.578125 C 8.582031 -60.367188 9.207031 -61.117188 9.875 -61.828125 C 10.539062 -62.546875 11.289062 -63.195312 12.125 -63.78125 C 14.539062 -65.695312 17.460938 -67.15625 20.890625 -68.15625 C 24.222656 -69.15625 28.015625 -69.65625 32.265625 -69.65625 C 36.765625 -69.65625 40.765625 -69.195312 44.265625 -68.28125 C 46.015625 -67.78125 47.660156 -67.238281 49.203125 -66.65625 C 50.742188 -66.070312 52.179688 -65.40625 53.515625 -64.65625 L 56.015625 -63.40625 L 55.140625 -60.890625 L 52.015625 -51.640625 L 50.765625 -48.015625 L 47.390625 -49.890625 C 45.390625 -51.140625 43.097656 -52.140625 40.515625 -52.890625 C 37.847656 -53.640625 34.929688 -54.015625 31.765625 -54.015625 C 30.515625 -54.015625 29.367188 -53.929688 28.328125 -53.765625 C 27.285156 -53.597656 26.390625 -53.367188 25.640625 -53.078125 C 24.890625 -52.785156 24.265625 -52.429688 23.765625 -52.015625 C 22.929688 -51.429688 22.367188 -50.867188 22.078125 -50.328125 C 21.785156 -49.785156 21.640625 -49.265625 21.640625 -48.765625 C 21.640625 -48.179688 21.722656 -47.679688 21.890625 -47.265625 C 22.054688 -46.929688 22.429688 -46.554688 23.015625 -46.140625 C 23.847656 -45.554688 24.972656 -44.929688 26.390625 -44.265625 C 27.222656 -43.929688 28.117188 -43.578125 29.078125 -43.203125 C 30.035156 -42.828125 31.140625 -42.429688 32.390625 -42.015625 C 33.472656 -41.597656 34.492188 -41.203125 35.453125 -40.828125 C 36.410156 -40.453125 37.347656 -40.078125 38.265625 -39.703125 C 39.179688 -39.328125 40.035156 -38.953125 40.828125 -38.578125 C 41.617188 -38.203125 42.390625 -37.847656 43.140625 -37.515625 C 46.304688 -35.847656 48.890625 -34.054688 50.890625 -32.140625 C 52.972656 -30.054688 54.429688 -27.765625 55.265625 -25.265625 C 56.179688 -22.847656 56.640625 -20.21875 56.640625 -17.375 C 56.640625 -13.957031 55.890625 -10.832031 54.390625 -8 C 52.890625 -5.25 50.847656 -2.914062 48.265625 -1 C 46.929688 -0.0820312 45.492188 0.726562 43.953125 1.4375 C 42.410156 2.144531 40.765625 2.75 39.015625 3.25 C 35.515625 4.164062 31.679688 4.625 27.515625 4.625 C 22.171875 4.625 17.375 3.957031 13.125 2.625 C 8.875 1.207031 5.332031 -0.582031 2.5 -2.75 L 0.375 -4.375 L 1.625 -6.625 L 6.375 -16 L 8.125 -19.625 Z M 11.25 -17 "/></g></g></g><g fill="#20335f" fill-opacity="1"><g transform="translate(633.339139, 263.347761)"><g><path d="M 15.125 -86.28125 L 26.890625 -86.28125 L 26.890625 -65.78125 L 44.890625 -65.78125 L 44.890625 -49.765625 L 26.890625 -49.765625 L 26.890625 -21.515625 C 26.890625 -19.421875 27.097656 -17.707031 27.515625 -16.375 C 27.929688 -15.125 28.429688 -14.164062 29.015625 -13.5 C 29.597656 -12.832031 30.304688 -12.375 31.140625 -12.125 C 31.640625 -11.957031 32.140625 -11.832031 32.640625 -11.75 C 33.140625 -11.664062 33.640625 -11.625 34.140625 -11.625 C 35.890625 -11.625 37.472656 -11.875 38.890625 -12.375 C 40.640625 -13.039062 42.265625 -13.789062 43.765625 -14.625 L 47.015625 -16.375 L 48.265625 -12.875 L 51.390625 -3.875 L 52.140625 -1.5 L 50.015625 -0.25 C 48.179688 0.914062 45.722656 2 42.640625 3 C 41.054688 3.582031 39.429688 4 37.765625 4.25 C 36.097656 4.5 34.429688 4.625 32.765625 4.625 C 25.597656 4.625 19.882812 2.25 15.625 -2.5 C 13.457031 -4.914062 11.875 -7.789062 10.875 -11.125 C 9.875 -14.457031 9.375 -18.210938 9.375 -22.390625 L 9.375 -49.765625 L -1.875 -49.765625 L -1.875 -65.78125 L 10 -65.78125 L 12 -83.53125 L 12.375 -86.28125 Z M 15.125 -86.28125 "/></g></g></g><g fill="#20335f" fill-opacity="1"><g transform="translate(682.979624, 263.347761)"><g><path d="M 2.5 -32.140625 C 2.5 -37.304688 3.289062 -42.179688 4.875 -46.765625 C 6.539062 -51.347656 8.875 -55.304688 11.875 -58.640625 C 14.875 -62.066406 18.476562 -64.757812 22.6875 -66.71875 C 26.90625 -68.675781 31.472656 -69.65625 36.390625 -69.65625 C 40.554688 -69.65625 44.347656 -68.945312 47.765625 -67.53125 C 49.015625 -66.945312 50.222656 -66.320312 51.390625 -65.65625 L 51.390625 -68.15625 L 67.90625 -68.15625 L 67.90625 -15.75 C 67.90625 -13.75 68.195312 -12.582031 68.78125 -12.25 C 69.78125 -11.582031 70.90625 -11.25 72.15625 -11.25 L 76.28125 -11.25 L 75.15625 -7.25 L 72.78125 1.5 L 72.15625 3.75 L 69.78125 3.75 C 62.519531 3.75 57.390625 1.375 54.390625 -3.375 C 54.222656 -3.207031 54.097656 -3.082031 54.015625 -3 C 53.265625 -2.25 52.472656 -1.539062 51.640625 -0.875 C 50.804688 -0.207031 49.929688 0.375 49.015625 0.875 C 47.097656 2.039062 44.953125 2.957031 42.578125 3.625 C 40.203125 4.289062 37.640625 4.625 34.890625 4.625 C 32.640625 4.625 30.453125 4.394531 28.328125 3.9375 C 26.203125 3.476562 24.140625 2.832031 22.140625 2 C 18.210938 0.25 14.789062 -2.25 11.875 -5.5 C 8.957031 -8.75 6.664062 -12.625 5 -17.125 C 3.332031 -21.550781 2.5 -26.554688 2.5 -32.140625 Z M 37.390625 -11.625 C 40.054688 -11.707031 42.554688 -12.332031 44.890625 -13.5 C 45.640625 -13.914062 46.347656 -14.351562 47.015625 -14.8125 C 47.679688 -15.269531 48.285156 -15.75 48.828125 -16.25 C 49.367188 -16.75 49.890625 -17.25 50.390625 -17.75 L 50.390625 -49.890625 C 48.722656 -50.890625 46.929688 -51.722656 45.015625 -52.390625 C 42.679688 -53.222656 40.179688 -53.640625 37.515625 -53.640625 C 35.015625 -53.640625 32.722656 -53.160156 30.640625 -52.203125 C 28.554688 -51.242188 26.765625 -49.847656 25.265625 -48.015625 C 23.679688 -46.265625 22.472656 -44.054688 21.640625 -41.390625 C 20.710938 -38.722656 20.25 -35.765625 20.25 -32.515625 C 20.25 -29.347656 20.710938 -26.472656 21.640625 -23.890625 C 22.054688 -22.554688 22.578125 -21.34375 23.203125 -20.25 C 23.828125 -19.164062 24.515625 -18.164062 25.265625 -17.25 C 26.015625 -16.332031 26.847656 -15.519531 27.765625 -14.8125 C 28.679688 -14.101562 29.640625 -13.539062 30.640625 -13.125 C 31.640625 -12.625 32.703125 -12.25 33.828125 -12 C 34.953125 -11.75 36.140625 -11.625 37.390625 -11.625 Z M 37.390625 -11.625 "/></g></g></g><g fill="#20335f" fill-opacity="1"><g transform="translate(760.128682, 263.347761)"><g><path d="M 15.125 -86.28125 L 26.890625 -86.28125 L 26.890625 -65.78125 L 44.890625 -65.78125 L 44.890625 -49.765625 L 26.890625 -49.765625 L 26.890625 -21.515625 C 26.890625 -19.421875 27.097656 -17.707031 27.515625 -16.375 C 27.929688 -15.125 28.429688 -14.164062 29.015625 -13.5 C 29.597656 -12.832031 30.304688 -12.375 31.140625 -12.125 C 31.640625 -11.957031 32.140625 -11.832031 32.640625 -11.75 C 33.140625 -11.664062 33.640625 -11.625 34.140625 -11.625 C 35.890625 -11.625 37.472656 -11.875 38.890625 -12.375 C 40.640625 -13.039062 42.265625 -13.789062 43.765625 -14.625 L 47.015625 -16.375 L 48.265625 -12.875 L 51.390625 -3.875 L 52.140625 -1.5 L 50.015625 -0.25 C 48.179688 0.914062 45.722656 2 42.640625 3 C 41.054688 3.582031 39.429688 4 37.765625 4.25 C 36.097656 4.5 34.429688 4.625 32.765625 4.625 C 25.597656 4.625 19.882812 2.25 15.625 -2.5 C 13.457031 -4.914062 11.875 -7.789062 10.875 -11.125 C 9.875 -14.457031 9.375 -18.210938 9.375 -22.390625 L 9.375 -49.765625 L -1.875 -49.765625 L -1.875 -65.78125 L 10 -65.78125 L 12 -83.53125 L 12.375 -86.28125 Z M 15.125 -86.28125 "/></g></g></g><g fill="#20335f" fill-opacity="1"><g transform="translate(809.769166, 263.347761)"><g><path d="M 20.890625 -24.765625 C 21.804688 -21.085938 23.390625 -18.125 25.640625 -15.875 C 28.554688 -13.039062 32.472656 -11.625 37.390625 -11.625 C 38.554688 -11.625 39.679688 -11.664062 40.765625 -11.75 C 41.847656 -11.832031 42.890625 -11.957031 43.890625 -12.125 C 44.890625 -12.289062 45.847656 -12.5 46.765625 -12.75 C 47.679688 -13 48.597656 -13.269531 49.515625 -13.5625 C 50.429688 -13.851562 51.328125 -14.164062 52.203125 -14.5 C 53.078125 -14.832031 53.972656 -15.207031 54.890625 -15.625 L 58.140625 -17.125 L 59.140625 -13.625 L 61.765625 -4 L 62.53125 -1.375 L 60.140625 -0.25 C 56.890625 1.25 53.265625 2.414062 49.265625 3.25 C 47.265625 3.75 45.160156 4.101562 42.953125 4.3125 C 40.742188 4.519531 38.429688 4.625 36.015625 4.625 C 30.929688 4.625 26.304688 3.789062 22.140625 2.125 C 17.960938 0.375 14.414062 -2.125 11.5 -5.375 C 8.582031 -8.539062 6.332031 -12.457031 4.75 -17.125 C 3.25 -21.632812 2.5 -26.765625 2.5 -32.515625 C 2.5 -37.679688 3.25 -42.515625 4.75 -47.015625 C 5.582031 -49.265625 6.539062 -51.390625 7.625 -53.390625 C 8.707031 -55.390625 9.957031 -57.222656 11.375 -58.890625 C 14.207031 -62.234375 17.628906 -64.863281 21.640625 -66.78125 C 25.640625 -68.695312 30.097656 -69.65625 35.015625 -69.65625 C 36.679688 -69.65625 38.285156 -69.550781 39.828125 -69.34375 C 41.367188 -69.132812 42.867188 -68.84375 44.328125 -68.46875 C 45.785156 -68.09375 47.179688 -67.613281 48.515625 -67.03125 C 50.515625 -66.113281 52.328125 -65.046875 53.953125 -63.828125 C 55.578125 -62.617188 57.054688 -61.222656 58.390625 -59.640625 C 60.972656 -56.554688 62.9375 -53.015625 64.28125 -49.015625 C 64.863281 -47.015625 65.320312 -44.953125 65.65625 -42.828125 C 65.988281 -40.703125 66.15625 -38.554688 66.15625 -36.390625 C 66.15625 -35.804688 66.15625 -35.222656 66.15625 -34.640625 C 66.15625 -34.054688 66.132812 -33.453125 66.09375 -32.828125 C 66.050781 -32.203125 66.03125 -31.597656 66.03125 -31.015625 C 66.03125 -30.429688 66.007812 -29.867188 65.96875 -29.328125 C 65.925781 -28.785156 65.863281 -28.222656 65.78125 -27.640625 L 65.53125 -24.765625 Z M 34.765625 -53.640625 C 30.765625 -53.640625 27.515625 -52.304688 25.015625 -49.640625 C 24.015625 -48.554688 23.140625 -47.222656 22.390625 -45.640625 C 21.640625 -44.054688 21.050781 -42.222656 20.625 -40.140625 L 49.390625 -40.140625 C 48.972656 -44.140625 47.722656 -47.265625 45.640625 -49.515625 C 43.054688 -52.265625 39.429688 -53.640625 34.765625 -53.640625 Z M 34.765625 -53.640625 "/></g></g></g></svg>