<svg width="24" height="38" viewBox="0 0 24 38" fill="none" xmlns="http://www.w3.org/2000/svg">
<path d="M2.86291 11.3309C2.86291 10.4718 2.81477 9.64078 3.24983 8.81219C4.50787 6.41615 7.30941 2.86365 11.2203 2.04116C12.7442 1.72068 13.1689 3.3557 13.1991 4.03395C13.3934 8.39512 12.4782 12.4838 11.0877 16.7389C10.7998 17.6197 10.3859 18.5196 10.2365 19.4206C10.2338 19.4364 10.8274 18.5406 11.0987 18.302C12.5305 17.0427 19.5573 10.9963 21.2139 14.9609C23.0095 19.2584 20.7627 23.3617 18.2291 27.288C17.1183 29.0094 15.9239 30.7411 14.4926 32.3552C13.407 33.5793 11.965 34.7353 11.0213 36" stroke="white" stroke-width="4" stroke-linecap="round"/>
</svg>
