<svg width="218" height="218" viewBox="0 0 218 218" fill="none" xmlns="http://www.w3.org/2000/svg">
<g clip-path="url(#clip0_2709_14169)">
<rect width="218" height="218" rx="109" fill="white"/>
<path d="M-13 -9H48L50.5163 -4.1325H167.484L170 -9H231V227H170L167.484 222.133H50.5163L48 227H-13V-9Z" fill="#FF0000"/>
<path d="M55 -3H163V236H55V-3ZM111.025 155.682L110.013 136.301C109.998 135.983 110.055 135.665 110.18 135.371C110.304 135.077 110.493 134.815 110.733 134.604C110.973 134.393 111.257 134.238 111.564 134.151C111.872 134.064 112.195 134.047 112.51 134.101L131.838 137.492L129.228 130.305C129.122 130.02 129.108 129.708 129.189 129.414C129.269 129.12 129.44 128.858 129.678 128.666L150.85 111.554L146.08 109.331C145.758 109.179 145.502 108.915 145.361 108.588C145.221 108.261 145.204 107.895 145.315 107.557L149.5 94.7113L137.305 97.2939C136.975 97.3626 136.631 97.3152 136.331 97.1597C136.032 97.0041 135.796 96.75 135.663 96.4405L133.3 90.8936L123.783 101.089C123.565 101.318 123.279 101.471 122.967 101.524C122.655 101.577 122.334 101.527 122.053 101.383C121.772 101.239 121.545 101.008 121.406 100.724C121.268 100.44 121.225 100.119 121.285 99.809L125.875 76.1844L118.518 80.4287C118.345 80.5298 118.153 80.5944 117.954 80.6185C117.756 80.6425 117.554 80.6256 117.362 80.5688C117.17 80.512 116.992 80.4164 116.838 80.288C116.685 80.1596 116.56 80.0011 116.47 79.8224L109 65.1805L101.53 79.8224C101.44 80.0011 101.315 80.1596 101.162 80.288C101.008 80.4164 100.83 80.512 100.638 80.5688C100.446 80.6256 100.244 80.6425 100.046 80.6185C99.8469 80.5944 99.6552 80.5298 99.4825 80.4287L92.125 76.1844L96.715 99.809C96.7748 100.119 96.7322 100.44 96.5937 100.724C96.4552 101.008 96.2283 101.239 95.9469 101.383C95.6655 101.527 95.3449 101.577 95.0331 101.524C94.7213 101.471 94.4351 101.318 94.2175 101.089L84.7 90.8936L82.3375 96.4405C82.2044 96.75 81.9682 97.0041 81.6688 97.1597C81.3694 97.3152 81.0254 97.3626 80.695 97.2939L68.5 94.7113L72.685 107.557C72.7959 107.895 72.7794 108.261 72.6385 108.588C72.4977 108.915 72.2422 109.179 71.92 109.331L67.15 111.554L88.3225 128.666C88.5596 128.858 88.7305 129.12 88.8112 129.414C88.8919 129.708 88.8784 130.02 88.7725 130.305L86.1625 137.492L105.49 134.101C105.805 134.047 106.128 134.064 106.436 134.151C106.743 134.238 107.027 134.393 107.267 134.604C107.507 134.815 107.696 135.077 107.82 135.371C107.945 135.665 108.002 135.983 107.988 136.301L106.975 155.682H111.025Z" fill="white"/>
</g>
<defs>
<clipPath id="clip0_2709_14169">
<rect width="218" height="218" rx="109" fill="white"/>
</clipPath>
</defs>
</svg>
