<svg width="218" height="218" viewBox="0 0 218 218" fill="none" xmlns="http://www.w3.org/2000/svg">
<g clip-path="url(#clip0_2709_13709)">
<rect width="218" height="218" rx="109" fill="white"/>
<g clip-path="url(#clip1_2709_13709)">
<path d="M273 0H-54V218H273V0Z" fill="#003399"/>
<path d="M109.5 24.2222L105.757 35.7406L111.517 37.6118L109.5 24.2222Z" fill="#FFCC00"/>
<path d="M109.5 24.2222L113.243 35.7406L107.483 37.6118L109.5 24.2222Z" fill="#FFCC00"/>
<path d="M121.018 32.5908H108.906V38.6464L121.018 32.5908Z" fill="#FFCC00"/>
<path d="M121.018 32.5908L111.219 39.7096L107.66 34.8105L121.018 32.5908Z" fill="#FFCC00"/>
<path d="M116.617 46.1314L112.875 34.6131L107.115 36.4843L116.617 46.1314Z" fill="#FFCC00"/>
<path d="M116.617 46.1314L106.819 39.0127L110.378 34.1136L116.617 46.1314Z" fill="#FFCC00"/>
<path d="M97.9805 32.5908H110.092V38.6464L97.9805 32.5908Z" fill="#FFCC00"/>
<path d="M97.9805 32.5908L107.779 39.7096L111.338 34.8105L97.9805 32.5908Z" fill="#FFCC00"/>
<path d="M102.381 46.1314L106.123 34.6131L111.883 36.4843L102.381 46.1314Z" fill="#FFCC00"/>
<path d="M102.381 46.1314L112.179 39.0127L108.62 34.1136L102.381 46.1314Z" fill="#FFCC00"/>
<path d="M109.5 169.556L105.757 181.074L111.517 182.945L109.5 169.556Z" fill="#FFCC00"/>
<path d="M109.5 169.556L113.243 181.074L107.483 182.945L109.5 169.556Z" fill="#FFCC00"/>
<path d="M121.018 177.924H108.906V183.98L121.018 177.924Z" fill="#FFCC00"/>
<path d="M121.018 177.924L111.219 185.043L107.66 180.144L121.018 177.924Z" fill="#FFCC00"/>
<path d="M116.617 191.465L112.875 179.946L107.115 181.818L116.617 191.465Z" fill="#FFCC00"/>
<path d="M116.617 191.465L106.819 184.346L110.378 179.447L116.617 191.465Z" fill="#FFCC00"/>
<path d="M97.9805 177.924H110.092V183.98L97.9805 177.924Z" fill="#FFCC00"/>
<path d="M97.9805 177.924L107.779 185.043L111.338 180.144L97.9805 177.924Z" fill="#FFCC00"/>
<path d="M102.381 191.465L106.123 179.946L111.883 181.818L102.381 191.465Z" fill="#FFCC00"/>
<path d="M102.381 191.465L112.179 184.346L108.62 179.447L102.381 191.465Z" fill="#FFCC00"/>
<path d="M36.834 96.8889L33.0914 108.407L38.8506 110.279L36.834 96.8889Z" fill="#FFCC00"/>
<path d="M36.834 96.8889L40.5765 108.407L34.8173 110.279L36.834 96.8889Z" fill="#FFCC00"/>
<path d="M48.3516 105.258H36.2405V111.313L48.3516 105.258Z" fill="#FFCC00"/>
<path d="M48.3516 105.258L38.5535 112.376L34.9941 107.477L48.3516 105.258Z" fill="#FFCC00"/>
<path d="M43.9512 118.798L40.2086 107.28L34.4495 109.151L43.9512 118.798Z" fill="#FFCC00"/>
<path d="M43.9512 118.798L34.1531 111.679L37.7124 106.78L43.9512 118.798Z" fill="#FFCC00"/>
<path d="M25.3145 105.258H37.4256V111.313L25.3145 105.258Z" fill="#FFCC00"/>
<path d="M25.3145 105.258L35.1125 112.376L38.6719 107.477L25.3145 105.258Z" fill="#FFCC00"/>
<path d="M29.7148 118.798L33.4574 107.28L39.2166 109.151L29.7148 118.798Z" fill="#FFCC00"/>
<path d="M29.7148 118.798L39.5129 111.679L35.9536 106.78L29.7148 118.798Z" fill="#FFCC00"/>
<path d="M66.0469 55.867L75.845 48.7483L72.2856 43.8492L66.0469 55.867Z" fill="#FFCC00"/>
<path d="M66.0469 55.867L69.7894 44.3487L75.5486 46.2199L66.0469 55.867Z" fill="#FFCC00"/>
<path d="M61.6484 42.3264L71.4465 49.4451L75.0059 44.546L61.6484 42.3264Z" fill="#FFCC00"/>
<path d="M61.6484 42.3264H73.7595V48.3819L61.6484 42.3264Z" fill="#FFCC00"/>
<path d="M73.168 33.9578L69.4254 45.4761L75.1846 47.3474L73.168 33.9578Z" fill="#FFCC00"/>
<path d="M73.168 33.9578L76.9105 45.4761L71.1513 47.3474L73.168 33.9578Z" fill="#FFCC00"/>
<path d="M80.2871 55.867L70.489 48.7483L74.0484 43.8492L80.2871 55.867Z" fill="#FFCC00"/>
<path d="M80.2871 55.867L76.5446 44.3487L70.7854 46.2199L80.2871 55.867Z" fill="#FFCC00"/>
<path d="M84.6855 42.3264L74.8875 49.4451L71.3281 44.546L84.6855 42.3264Z" fill="#FFCC00"/>
<path d="M84.6855 42.3264H72.5744V48.3819L84.6855 42.3264Z" fill="#FFCC00"/>
<path d="M53.6855 82.4647L49.943 70.9464L44.1838 72.8176L53.6855 82.4647Z" fill="#FFCC00"/>
<path d="M53.6855 82.4647L43.8875 75.346L47.4468 70.4469L53.6855 82.4647Z" fill="#FFCC00"/>
<path d="M39.4492 82.4648L49.2473 75.3461L45.6879 70.447L39.4492 82.4648Z" fill="#FFCC00"/>
<path d="M39.4492 82.4648L43.1918 70.9464L48.9509 72.8177L39.4492 82.4648Z" fill="#FFCC00"/>
<path d="M35.0508 68.9241L44.8489 76.0429L48.4082 71.1438L35.0508 68.9241Z" fill="#FFCC00"/>
<path d="M35.0508 68.9241H47.1619V74.9797L35.0508 68.9241Z" fill="#FFCC00"/>
<path d="M58.0859 68.9241L48.2878 76.0429L44.7285 71.1438L58.0859 68.9241Z" fill="#FFCC00"/>
<path d="M58.0859 68.9241H45.9748V74.9797L58.0859 68.9241Z" fill="#FFCC00"/>
<path d="M46.5664 60.5555L50.3089 72.0739L44.5498 73.9452L46.5664 60.5555Z" fill="#FFCC00"/>
<path d="M46.5664 60.5555L42.8239 72.0739L48.583 73.9452L46.5664 60.5555Z" fill="#FFCC00"/>
<path d="M58.0879 141.591H45.9768V147.646L58.0879 141.591Z" fill="#FFCC00"/>
<path d="M58.0879 141.591L48.2898 148.709L44.7304 143.81L58.0879 141.591Z" fill="#FFCC00"/>
<path d="M53.6875 155.131L49.945 143.613L44.1858 145.484L53.6875 155.131Z" fill="#FFCC00"/>
<path d="M53.6875 155.131L43.8894 148.013L47.4488 143.114L53.6875 155.131Z" fill="#FFCC00"/>
<path d="M39.4492 155.131L49.2473 148.013L45.6879 143.114L39.4492 155.131Z" fill="#FFCC00"/>
<path d="M39.4492 155.131L43.1918 143.613L48.9509 145.484L39.4492 155.131Z" fill="#FFCC00"/>
<path d="M46.5684 133.222L50.3109 144.741L44.5517 146.612L46.5684 133.222Z" fill="#FFCC00"/>
<path d="M46.5684 133.222L42.8258 144.741L48.585 146.612L46.5684 133.222Z" fill="#FFCC00"/>
<path d="M35.0508 141.591H47.1619V147.646L35.0508 141.591Z" fill="#FFCC00"/>
<path d="M35.0508 141.591L44.8489 148.709L48.4082 143.81L35.0508 141.591Z" fill="#FFCC00"/>
<path d="M84.6855 168.189H72.5744V174.244L84.6855 168.189Z" fill="#FFCC00"/>
<path d="M84.6855 168.189L74.8875 175.307L71.3281 170.408L84.6855 168.189Z" fill="#FFCC00"/>
<path d="M80.2852 181.729L76.5426 170.211L70.7834 172.082L80.2852 181.729Z" fill="#FFCC00"/>
<path d="M80.2852 181.729L70.4871 174.611L74.0464 169.712L80.2852 181.729Z" fill="#FFCC00"/>
<path d="M66.0469 181.729L75.845 174.611L72.2856 169.712L66.0469 181.729Z" fill="#FFCC00"/>
<path d="M66.0469 181.729L69.7894 170.211L75.5486 172.082L66.0469 181.729Z" fill="#FFCC00"/>
<path d="M73.166 159.82L76.9086 171.338L71.1494 173.21L73.166 159.82Z" fill="#FFCC00"/>
<path d="M73.166 159.82L69.4235 171.338L75.1827 173.21L73.166 159.82Z" fill="#FFCC00"/>
<path d="M61.6484 168.189H73.7595V174.244L61.6484 168.189Z" fill="#FFCC00"/>
<path d="M61.6484 168.189L71.4465 175.307L75.0059 170.408L61.6484 168.189Z" fill="#FFCC00"/>
<path d="M182.166 96.8889L185.909 108.407L180.149 110.279L182.166 96.8889Z" fill="#FFCC00"/>
<path d="M182.166 96.8889L178.423 108.407L184.183 110.279L182.166 96.8889Z" fill="#FFCC00"/>
<path d="M170.648 105.258H182.76V111.313L170.648 105.258Z" fill="#FFCC00"/>
<path d="M170.648 105.258L180.447 112.376L184.006 107.477L170.648 105.258Z" fill="#FFCC00"/>
<path d="M175.049 118.798L178.791 107.28L184.551 109.151L175.049 118.798Z" fill="#FFCC00"/>
<path d="M175.049 118.798L184.847 111.679L181.288 106.78L175.049 118.798Z" fill="#FFCC00"/>
<path d="M193.686 105.258H181.574V111.313L193.686 105.258Z" fill="#FFCC00"/>
<path d="M193.686 105.258L183.887 112.376L180.328 107.477L193.686 105.258Z" fill="#FFCC00"/>
<path d="M189.285 118.798L185.543 107.28L179.783 109.151L189.285 118.798Z" fill="#FFCC00"/>
<path d="M189.285 118.798L179.487 111.679L183.046 106.78L189.285 118.798Z" fill="#FFCC00"/>
<path d="M152.953 55.867L143.155 48.7483L146.714 43.8492L152.953 55.867Z" fill="#FFCC00"/>
<path d="M152.953 55.867L149.211 44.3487L143.451 46.2199L152.953 55.867Z" fill="#FFCC00"/>
<path d="M157.352 42.3264L147.553 49.4451L143.994 44.546L157.352 42.3264Z" fill="#FFCC00"/>
<path d="M157.352 42.3264H145.24V48.3819L157.352 42.3264Z" fill="#FFCC00"/>
<path d="M145.832 33.9578L149.575 45.4761L143.815 47.3474L145.832 33.9578Z" fill="#FFCC00"/>
<path d="M145.832 33.9578L142.089 45.4761L147.849 47.3474L145.832 33.9578Z" fill="#FFCC00"/>
<path d="M138.713 55.867L148.511 48.7483L144.952 43.8492L138.713 55.867Z" fill="#FFCC00"/>
<path d="M138.713 55.867L142.455 44.3487L148.215 46.2199L138.713 55.867Z" fill="#FFCC00"/>
<path d="M134.314 42.3264L144.113 49.4451L147.672 44.546L134.314 42.3264Z" fill="#FFCC00"/>
<path d="M134.314 42.3264H146.426V48.3819L134.314 42.3264Z" fill="#FFCC00"/>
<path d="M165.314 82.4647L169.057 70.9464L174.816 72.8176L165.314 82.4647Z" fill="#FFCC00"/>
<path d="M165.314 82.4647L175.113 75.346L171.553 70.4469L165.314 82.4647Z" fill="#FFCC00"/>
<path d="M179.551 82.4648L169.753 75.3461L173.312 70.447L179.551 82.4648Z" fill="#FFCC00"/>
<path d="M179.551 82.4648L175.808 70.9464L170.049 72.8177L179.551 82.4648Z" fill="#FFCC00"/>
<path d="M183.949 68.9241L174.151 76.0429L170.592 71.1438L183.949 68.9241Z" fill="#FFCC00"/>
<path d="M183.949 68.9241H171.838V74.9797L183.949 68.9241Z" fill="#FFCC00"/>
<path d="M160.914 68.9241L170.712 76.0429L174.272 71.1438L160.914 68.9241Z" fill="#FFCC00"/>
<path d="M160.914 68.9241H173.025V74.9797L160.914 68.9241Z" fill="#FFCC00"/>
<path d="M172.434 60.5555L168.691 72.0739L174.45 73.9452L172.434 60.5555Z" fill="#FFCC00"/>
<path d="M172.434 60.5555L176.176 72.0739L170.417 73.9452L172.434 60.5555Z" fill="#FFCC00"/>
<path d="M160.912 141.591H173.023V147.646L160.912 141.591Z" fill="#FFCC00"/>
<path d="M160.912 141.591L170.71 148.709L174.27 143.81L160.912 141.591Z" fill="#FFCC00"/>
<path d="M165.312 155.131L169.055 143.613L174.814 145.484L165.312 155.131Z" fill="#FFCC00"/>
<path d="M165.312 155.131L175.111 148.013L171.551 143.114L165.312 155.131Z" fill="#FFCC00"/>
<path d="M179.551 155.131L169.753 148.013L173.312 143.114L179.551 155.131Z" fill="#FFCC00"/>
<path d="M179.551 155.131L175.808 143.613L170.049 145.484L179.551 155.131Z" fill="#FFCC00"/>
<path d="M172.432 133.222L168.689 144.741L174.448 146.612L172.432 133.222Z" fill="#FFCC00"/>
<path d="M172.432 133.222L176.174 144.741L170.415 146.612L172.432 133.222Z" fill="#FFCC00"/>
<path d="M183.949 141.591H171.838V147.646L183.949 141.591Z" fill="#FFCC00"/>
<path d="M183.949 141.591L174.151 148.71L170.592 143.811L183.949 141.591Z" fill="#FFCC00"/>
<path d="M134.314 168.189H146.426V174.244L134.314 168.189Z" fill="#FFCC00"/>
<path d="M134.314 168.189L144.113 175.307L147.672 170.408L134.314 168.189Z" fill="#FFCC00"/>
<path d="M138.715 181.729L142.457 170.211L148.217 172.082L138.715 181.729Z" fill="#FFCC00"/>
<path d="M138.715 181.729L148.513 174.611L144.954 169.712L138.715 181.729Z" fill="#FFCC00"/>
<path d="M152.953 181.729L143.155 174.611L146.714 169.712L152.953 181.729Z" fill="#FFCC00"/>
<path d="M152.953 181.729L149.211 170.211L143.451 172.082L152.953 181.729Z" fill="#FFCC00"/>
<path d="M145.834 159.82L142.091 171.338L147.851 173.21L145.834 159.82Z" fill="#FFCC00"/>
<path d="M145.834 159.82L149.577 171.338L143.817 173.21L145.834 159.82Z" fill="#FFCC00"/>
<path d="M157.352 168.189H145.24V174.244L157.352 168.189Z" fill="#FFCC00"/>
<path d="M157.352 168.189L147.553 175.307L143.994 170.408L157.352 168.189Z" fill="#FFCC00"/>
</g>
</g>
<defs>
<clipPath id="clip0_2709_13709">
<rect width="218" height="218" rx="109" fill="white"/>
</clipPath>
<clipPath id="clip1_2709_13709">
<rect width="327" height="218" fill="white" transform="translate(-54)"/>
</clipPath>
</defs>
</svg>
