<svg width="218" height="218" viewBox="0 0 218 218" fill="none" xmlns="http://www.w3.org/2000/svg">
<g clip-path="url(#clip0_2709_13686)">
<rect width="218" height="218" rx="109" fill="#ECEFF1"/>
<path d="M-123 85.8H341V132.2H-123" fill="white"/>
<path d="M2 38H215V180H2V38Z" fill="#ECEFF1"/>
<path d="M91.1996 -36H125.8V254H91.1996V-36ZM-31 91.6975H248V126.303H-31V91.6975Z" fill="#FF0000"/>
<path d="M46.1484 39.3919C50.1868 39.9223 54.2772 39.9223 58.3156 39.3919C55.9712 51.0758 55.9712 63.109 58.3156 74.7929C54.2772 74.2625 50.1868 74.2625 46.1484 74.7929C48.4928 63.109 48.4928 51.0758 46.1484 39.3919Z" fill="#FF0000"/>
<path d="M69.9316 51.0089C69.4012 55.0473 69.4012 59.1376 69.9316 63.176C58.2478 60.8316 46.2146 60.8316 34.5307 63.176C35.0611 59.1376 35.0611 55.0473 34.5307 51.0089C46.2146 53.3533 58.2478 53.3533 69.9316 51.0089Z" fill="#FF0000"/>
<path d="M157.613 39.3919C161.652 39.9223 165.742 39.9223 169.78 39.3919C167.436 51.0758 167.436 63.109 169.78 74.7929C165.742 74.2625 161.652 74.2625 157.613 74.7929C159.958 63.109 159.958 51.0758 157.613 39.3919Z" fill="#FF0000"/>
<path d="M181.396 51.0089C180.866 55.0473 180.866 59.1376 181.396 63.176C169.713 60.8316 157.679 60.8316 145.996 63.176C146.526 59.1376 146.526 55.0473 145.996 51.0089C157.679 53.3533 169.713 53.3533 181.396 51.0089Z" fill="#FF0000"/>
<path d="M46.1484 143.207C50.1868 143.737 54.2772 143.737 58.3156 143.207C55.9712 154.891 55.9712 166.924 58.3156 178.608C54.2772 178.078 50.1868 178.078 46.1484 178.608C48.4928 166.924 48.4928 154.891 46.1484 143.207Z" fill="#FF0000"/>
<path d="M69.9316 154.824C69.4012 158.862 69.4012 162.953 69.9316 166.991C58.2478 164.647 46.2146 164.647 34.5307 166.991C35.0611 162.953 35.0611 158.862 34.5307 154.824C46.2146 157.168 58.2478 157.168 69.9316 154.824Z" fill="#FF0000"/>
<path d="M157.613 143.207C161.652 143.737 165.742 143.737 169.78 143.207C167.436 154.891 167.436 166.924 169.78 178.608C165.742 178.078 161.652 178.078 157.613 178.608C159.958 166.924 159.958 154.891 157.613 143.207Z" fill="#FF0000"/>
<path d="M181.396 154.824C180.866 158.862 180.866 162.953 181.396 166.991C169.713 164.647 157.679 164.647 145.996 166.991C146.526 162.953 146.526 158.862 145.996 154.824C157.679 157.168 169.713 157.168 181.396 154.824Z" fill="#FF0000"/>
</g>
<defs>
<clipPath id="clip0_2709_13686">
<rect width="218" height="218" rx="109" fill="white"/>
</clipPath>
</defs>
</svg>
