<svg xmlns="http://www.w3.org/2000/svg" width="128" height="128" viewBox="0 0 128 128" fill="none">
  <path d="M70.5689 62.5553L50.2062 82.918C40.8089 92.3153 30.6862 94.726 25.9235 89.9686C21.1662 85.2113 23.5769 75.0833 32.9742 65.686L53.3315 45.334" stroke="#222222" stroke-width="5.70042" stroke-miterlimit="10" stroke-linecap="round"/>
  <path d="M57.457 39.6433L77.6224 19.478C79.6997 17.4011 82.5169 16.2344 85.4544 16.2344C88.3918 16.2344 91.209 17.4011 93.2864 19.478L96.417 22.6087C98.4939 24.686 99.6607 27.5032 99.6607 30.4407C99.6607 33.3781 98.4939 36.1953 96.417 38.2727L76.3477 58.342" stroke="#222222" stroke-width="5.70042" stroke-miterlimit="10" stroke-linecap="round"/>
  <path d="M19.666 96.2354L25.9273 89.9688" stroke="#222222" stroke-width="5.70042" stroke-miterlimit="10" stroke-linecap="round"/>
  <path d="M57.3848 39.7129L76.0514 58.6409" stroke="#222222" stroke-width="5.70042" stroke-miterlimit="10" stroke-linecap="round"/>
  <path d="M98.0682 36.1719C99.2049 37.049 100.142 38.1583 100.816 39.4259C101.49 40.6935 101.886 42.0902 101.978 43.523C102.07 44.9558 101.855 46.3917 101.348 47.735C100.842 49.0783 100.054 50.2982 99.0389 51.3132L87.0176 63.3399" stroke="#222222" stroke-width="5.70042" stroke-miterlimit="10" stroke-linecap="round"/>
  <path d="M22.6328 105.601C28.8781 108.197 35.4462 109.935 42.1581 110.769C92.9581 117.099 87.6675 59.5686 64.3821 95.798C48.3821 120.731 94.0781 113.265 108.334 95.3713" stroke="#222222" stroke-width="5.70042" stroke-miterlimit="10" stroke-linecap="round"/>
</svg>